M48
;GenerationSoftware,Autodesk,EAGLE,9.6.2*%
;CreationDate,2021-04-28T21:28:21Z*%
FMAT,2
ICI,OFF
METRIC,TZ,000.000
T8C0.350
T7C0.500
T6C0.800
T5C0.813
T4C1.000
T3C1.016
T2C1.194
T1C1.270
%
G90
M71
T1
X36830Y25400
X39370Y7620
X10160Y2540
X6350Y25400
T2
X3810Y10120
X3810Y5120
T3
X20066Y25019
X17526Y25019
X14986Y25019
X12446Y25019
X27686Y25019
X30226Y25019
X32766Y25019
T4
X42100Y11430
X41910Y25400
X41910Y22860
X41910Y20320
X41910Y17780
X42116Y3810
X35116Y3810
X35100Y11430
T5
X19050Y3810
X16510Y3810
X19050Y11430
X16510Y11430
T6
X29767Y3795
X29767Y11415
X29767Y6335
X29767Y8875
X32307Y8875
X32307Y6335
X32307Y3795
X32307Y11415
T7
X4407Y17431
X4407Y21431
T8
X10160Y21590
X8890Y19050
X10160Y19050
X19403Y22860
X8890Y21590
M30