G04 EAGLE Gerber RS-274X export*
G75*
%MOMM*%
%FSLAX34Y34*%
%LPD*%
%INSoldermask Bottom*%
%IPPOS*%
%AMOC8*
5,1,8,0,0,1.08239X$1,22.5*%
G01*
%ADD10C,1.473200*%
%ADD11R,1.511200X1.511200*%
%ADD12C,1.511200*%
%ADD13C,1.727200*%
%ADD14C,1.524000*%
%ADD15R,1.711200X1.711200*%
%ADD16C,1.711200*%
%ADD17C,1.993900*%
%ADD18C,0.703200*%
%ADD19C,0.959600*%


D10*
X63500Y254000D03*
X101600Y25400D03*
X393700Y76200D03*
X368300Y254000D03*
D11*
X297675Y37950D03*
X297675Y114150D03*
D12*
X297675Y63350D03*
X297675Y88750D03*
X323075Y88750D03*
X323075Y63350D03*
X323075Y37950D03*
X323075Y114150D03*
D13*
X276860Y242570D02*
X276860Y257810D01*
X302260Y257810D02*
X302260Y242570D01*
X327660Y242570D02*
X327660Y257810D01*
D14*
X165100Y38100D02*
X165100Y24892D01*
X190500Y24892D02*
X190500Y38100D01*
X190500Y114300D02*
X190500Y127508D01*
X165100Y127508D02*
X165100Y114300D01*
D15*
X419100Y254000D03*
D16*
X419100Y228600D03*
X419100Y203200D03*
X419100Y177800D03*
X421160Y38100D03*
X351160Y38100D03*
X351000Y114300D03*
X421000Y114300D03*
D17*
X47054Y51200D02*
X29147Y51200D01*
X29147Y101200D02*
X47054Y101200D01*
D13*
X124460Y242570D02*
X124460Y257810D01*
X149860Y257810D02*
X149860Y242570D01*
X175260Y242570D02*
X175260Y257810D01*
X200660Y257810D02*
X200660Y242570D01*
D18*
X44070Y174310D03*
X44070Y214310D03*
D19*
X88900Y215900D03*
X101600Y215900D03*
X88900Y190500D03*
X101600Y190500D03*
X194028Y228600D03*
M02*
