G04 EAGLE Gerber RS-274X export*
G75*
%MOMM*%
%FSLAX34Y34*%
%LPD*%
%IN*%
%IPPOS*%
%AMOC8*
5,1,8,0,0,1.08239X$1,22.5*%
G01*
%ADD10C,0.254000*%


D10*
X0Y0D02*
X444300Y0D01*
X444300Y276100D01*
X0Y276100D01*
X0Y0D01*
X69850Y253688D02*
X69789Y253067D01*
X69667Y252455D01*
X69486Y251858D01*
X69247Y251282D01*
X68953Y250732D01*
X68607Y250213D01*
X68211Y249730D01*
X67770Y249289D01*
X67287Y248893D01*
X66769Y248547D01*
X66218Y248253D01*
X65642Y248014D01*
X65045Y247833D01*
X64433Y247711D01*
X63812Y247650D01*
X63188Y247650D01*
X62567Y247711D01*
X61955Y247833D01*
X61358Y248014D01*
X60782Y248253D01*
X60232Y248547D01*
X59713Y248893D01*
X59230Y249289D01*
X58789Y249730D01*
X58393Y250213D01*
X58047Y250732D01*
X57753Y251282D01*
X57514Y251858D01*
X57333Y252455D01*
X57211Y253067D01*
X57150Y253688D01*
X57150Y254312D01*
X57211Y254933D01*
X57333Y255545D01*
X57514Y256142D01*
X57753Y256718D01*
X58047Y257269D01*
X58393Y257787D01*
X58789Y258270D01*
X59230Y258711D01*
X59713Y259107D01*
X60232Y259453D01*
X60782Y259747D01*
X61358Y259986D01*
X61955Y260167D01*
X62567Y260289D01*
X63188Y260350D01*
X63812Y260350D01*
X64433Y260289D01*
X65045Y260167D01*
X65642Y259986D01*
X66218Y259747D01*
X66769Y259453D01*
X67287Y259107D01*
X67770Y258711D01*
X68211Y258270D01*
X68607Y257787D01*
X68953Y257269D01*
X69247Y256718D01*
X69486Y256142D01*
X69667Y255545D01*
X69789Y254933D01*
X69850Y254312D01*
X69850Y253688D01*
X107950Y25088D02*
X107889Y24467D01*
X107767Y23855D01*
X107586Y23258D01*
X107347Y22682D01*
X107053Y22132D01*
X106707Y21613D01*
X106311Y21130D01*
X105870Y20689D01*
X105387Y20293D01*
X104869Y19947D01*
X104318Y19653D01*
X103742Y19414D01*
X103145Y19233D01*
X102533Y19111D01*
X101912Y19050D01*
X101288Y19050D01*
X100667Y19111D01*
X100055Y19233D01*
X99458Y19414D01*
X98882Y19653D01*
X98332Y19947D01*
X97813Y20293D01*
X97330Y20689D01*
X96889Y21130D01*
X96493Y21613D01*
X96147Y22132D01*
X95853Y22682D01*
X95614Y23258D01*
X95433Y23855D01*
X95311Y24467D01*
X95250Y25088D01*
X95250Y25712D01*
X95311Y26333D01*
X95433Y26945D01*
X95614Y27542D01*
X95853Y28118D01*
X96147Y28669D01*
X96493Y29187D01*
X96889Y29670D01*
X97330Y30111D01*
X97813Y30507D01*
X98332Y30853D01*
X98882Y31147D01*
X99458Y31386D01*
X100055Y31567D01*
X100667Y31689D01*
X101288Y31750D01*
X101912Y31750D01*
X102533Y31689D01*
X103145Y31567D01*
X103742Y31386D01*
X104318Y31147D01*
X104869Y30853D01*
X105387Y30507D01*
X105870Y30111D01*
X106311Y29670D01*
X106707Y29187D01*
X107053Y28669D01*
X107347Y28118D01*
X107586Y27542D01*
X107767Y26945D01*
X107889Y26333D01*
X107950Y25712D01*
X107950Y25088D01*
X400050Y75888D02*
X399989Y75267D01*
X399867Y74655D01*
X399686Y74058D01*
X399447Y73482D01*
X399153Y72932D01*
X398807Y72413D01*
X398411Y71930D01*
X397970Y71489D01*
X397487Y71093D01*
X396969Y70747D01*
X396418Y70453D01*
X395842Y70214D01*
X395245Y70033D01*
X394633Y69911D01*
X394012Y69850D01*
X393388Y69850D01*
X392767Y69911D01*
X392155Y70033D01*
X391558Y70214D01*
X390982Y70453D01*
X390432Y70747D01*
X389913Y71093D01*
X389430Y71489D01*
X388989Y71930D01*
X388593Y72413D01*
X388247Y72932D01*
X387953Y73482D01*
X387714Y74058D01*
X387533Y74655D01*
X387411Y75267D01*
X387350Y75888D01*
X387350Y76512D01*
X387411Y77133D01*
X387533Y77745D01*
X387714Y78342D01*
X387953Y78918D01*
X388247Y79469D01*
X388593Y79987D01*
X388989Y80470D01*
X389430Y80911D01*
X389913Y81307D01*
X390432Y81653D01*
X390982Y81947D01*
X391558Y82186D01*
X392155Y82367D01*
X392767Y82489D01*
X393388Y82550D01*
X394012Y82550D01*
X394633Y82489D01*
X395245Y82367D01*
X395842Y82186D01*
X396418Y81947D01*
X396969Y81653D01*
X397487Y81307D01*
X397970Y80911D01*
X398411Y80470D01*
X398807Y79987D01*
X399153Y79469D01*
X399447Y78918D01*
X399686Y78342D01*
X399867Y77745D01*
X399989Y77133D01*
X400050Y76512D01*
X400050Y75888D01*
X374650Y253688D02*
X374589Y253067D01*
X374467Y252455D01*
X374286Y251858D01*
X374047Y251282D01*
X373753Y250732D01*
X373407Y250213D01*
X373011Y249730D01*
X372570Y249289D01*
X372087Y248893D01*
X371569Y248547D01*
X371018Y248253D01*
X370442Y248014D01*
X369845Y247833D01*
X369233Y247711D01*
X368612Y247650D01*
X367988Y247650D01*
X367367Y247711D01*
X366755Y247833D01*
X366158Y248014D01*
X365582Y248253D01*
X365032Y248547D01*
X364513Y248893D01*
X364030Y249289D01*
X363589Y249730D01*
X363193Y250213D01*
X362847Y250732D01*
X362553Y251282D01*
X362314Y251858D01*
X362133Y252455D01*
X362011Y253067D01*
X361950Y253688D01*
X361950Y254312D01*
X362011Y254933D01*
X362133Y255545D01*
X362314Y256142D01*
X362553Y256718D01*
X362847Y257269D01*
X363193Y257787D01*
X363589Y258270D01*
X364030Y258711D01*
X364513Y259107D01*
X365032Y259453D01*
X365582Y259747D01*
X366158Y259986D01*
X366755Y260167D01*
X367367Y260289D01*
X367988Y260350D01*
X368612Y260350D01*
X369233Y260289D01*
X369845Y260167D01*
X370442Y259986D01*
X371018Y259747D01*
X371569Y259453D01*
X372087Y259107D01*
X372570Y258711D01*
X373011Y258270D01*
X373407Y257787D01*
X373753Y257269D01*
X374047Y256718D01*
X374286Y256142D01*
X374467Y255545D01*
X374589Y254933D01*
X374650Y254312D01*
X374650Y253688D01*
X44267Y176810D02*
X44655Y176748D01*
X45030Y176627D01*
X45380Y176448D01*
X45699Y176217D01*
X45977Y175939D01*
X46208Y175620D01*
X46387Y175270D01*
X46508Y174895D01*
X46570Y174507D01*
X46570Y174113D01*
X46508Y173725D01*
X46387Y173350D01*
X46208Y173000D01*
X45977Y172681D01*
X45699Y172403D01*
X45380Y172172D01*
X45030Y171993D01*
X44655Y171872D01*
X44267Y171810D01*
X43873Y171810D01*
X43485Y171872D01*
X43110Y171993D01*
X42760Y172172D01*
X42441Y172403D01*
X42163Y172681D01*
X41932Y173000D01*
X41753Y173350D01*
X41632Y173725D01*
X41570Y174113D01*
X41570Y174507D01*
X41632Y174895D01*
X41753Y175270D01*
X41932Y175620D01*
X42163Y175939D01*
X42441Y176217D01*
X42760Y176448D01*
X43110Y176627D01*
X43485Y176748D01*
X43873Y176810D01*
X44267Y176810D01*
X44267Y216810D02*
X44655Y216748D01*
X45030Y216627D01*
X45380Y216448D01*
X45699Y216217D01*
X45977Y215939D01*
X46208Y215620D01*
X46387Y215270D01*
X46508Y214895D01*
X46570Y214507D01*
X46570Y214113D01*
X46508Y213725D01*
X46387Y213350D01*
X46208Y213000D01*
X45977Y212681D01*
X45699Y212403D01*
X45380Y212172D01*
X45030Y211993D01*
X44655Y211872D01*
X44267Y211810D01*
X43873Y211810D01*
X43485Y211872D01*
X43110Y211993D01*
X42760Y212172D01*
X42441Y212403D01*
X42163Y212681D01*
X41932Y213000D01*
X41753Y213350D01*
X41632Y213725D01*
X41570Y214113D01*
X41570Y214507D01*
X41632Y214895D01*
X41753Y215270D01*
X41932Y215620D01*
X42163Y215939D01*
X42441Y216217D01*
X42760Y216448D01*
X43110Y216627D01*
X43485Y216748D01*
X43873Y216810D01*
X44267Y216810D01*
M02*
