G04 EAGLE Gerber RS-274X export*
G75*
%MOMM*%
%FSLAX34Y34*%
%LPD*%
%INSilkscreen Top*%
%IPPOS*%
%AMOC8*
5,1,8,0,0,1.08239X$1,22.5*%
G01*
%ADD10C,0.330200*%
%ADD11C,0.127000*%
%ADD12C,0.152400*%
%ADD13C,0.203200*%
%ADD14C,0.050800*%
%ADD15R,2.000000X1.000000*%
%ADD16C,0.141419*%


D10*
X159131Y56261D02*
X159131Y57291D01*
X160161Y57291D01*
X160161Y56261D01*
X159131Y56261D01*
D11*
X175472Y200448D02*
X175472Y201718D01*
X179705Y201718D01*
X179705Y199178D01*
X179703Y199097D01*
X179697Y199017D01*
X179688Y198937D01*
X179674Y198858D01*
X179657Y198779D01*
X179636Y198701D01*
X179612Y198624D01*
X179584Y198549D01*
X179552Y198475D01*
X179517Y198402D01*
X179478Y198332D01*
X179436Y198263D01*
X179391Y198196D01*
X179343Y198131D01*
X179291Y198069D01*
X179237Y198010D01*
X179180Y197953D01*
X179121Y197899D01*
X179059Y197847D01*
X178994Y197799D01*
X178927Y197754D01*
X178859Y197712D01*
X178788Y197673D01*
X178715Y197638D01*
X178641Y197606D01*
X178566Y197578D01*
X178489Y197554D01*
X178411Y197533D01*
X178332Y197516D01*
X178253Y197502D01*
X178173Y197493D01*
X178093Y197487D01*
X178012Y197485D01*
X173778Y197485D01*
X173697Y197487D01*
X173617Y197493D01*
X173537Y197502D01*
X173458Y197516D01*
X173379Y197533D01*
X173301Y197554D01*
X173224Y197578D01*
X173149Y197606D01*
X173075Y197638D01*
X173002Y197673D01*
X172932Y197712D01*
X172863Y197754D01*
X172796Y197799D01*
X172731Y197847D01*
X172669Y197898D01*
X172610Y197953D01*
X172553Y198010D01*
X172499Y198069D01*
X172447Y198131D01*
X172399Y198196D01*
X172354Y198263D01*
X172312Y198331D01*
X172273Y198402D01*
X172238Y198475D01*
X172206Y198549D01*
X172178Y198624D01*
X172154Y198701D01*
X172133Y198779D01*
X172116Y198858D01*
X172102Y198937D01*
X172093Y199017D01*
X172087Y199097D01*
X172085Y199178D01*
X172085Y201718D01*
X172085Y206184D02*
X179705Y206184D01*
X172085Y206184D02*
X172085Y208301D01*
X172087Y208392D01*
X172093Y208483D01*
X172103Y208574D01*
X172116Y208664D01*
X172134Y208753D01*
X172155Y208842D01*
X172180Y208929D01*
X172209Y209016D01*
X172242Y209101D01*
X172278Y209184D01*
X172318Y209266D01*
X172361Y209346D01*
X172408Y209425D01*
X172458Y209501D01*
X172511Y209575D01*
X172567Y209646D01*
X172627Y209715D01*
X172689Y209782D01*
X172754Y209845D01*
X172822Y209906D01*
X172892Y209964D01*
X172965Y210019D01*
X173040Y210071D01*
X173117Y210119D01*
X173197Y210164D01*
X173278Y210206D01*
X173360Y210244D01*
X173445Y210278D01*
X173531Y210309D01*
X173618Y210336D01*
X173706Y210359D01*
X173795Y210378D01*
X173884Y210394D01*
X173975Y210406D01*
X174065Y210414D01*
X174156Y210418D01*
X174248Y210418D01*
X174339Y210414D01*
X174429Y210406D01*
X174520Y210394D01*
X174609Y210378D01*
X174698Y210359D01*
X174786Y210336D01*
X174873Y210309D01*
X174959Y210278D01*
X175044Y210244D01*
X175126Y210206D01*
X175207Y210164D01*
X175287Y210119D01*
X175364Y210071D01*
X175439Y210019D01*
X175512Y209964D01*
X175582Y209906D01*
X175650Y209845D01*
X175715Y209782D01*
X175777Y209715D01*
X175837Y209646D01*
X175893Y209575D01*
X175946Y209501D01*
X175996Y209425D01*
X176043Y209346D01*
X176086Y209266D01*
X176126Y209184D01*
X176162Y209101D01*
X176195Y209016D01*
X176224Y208929D01*
X176249Y208842D01*
X176270Y208753D01*
X176288Y208664D01*
X176301Y208574D01*
X176311Y208483D01*
X176317Y208392D01*
X176319Y208301D01*
X176318Y208301D02*
X176318Y206184D01*
X179705Y214270D02*
X172085Y214270D01*
X179705Y213423D02*
X179705Y215117D01*
X172085Y215117D02*
X172085Y213423D01*
X174202Y218554D02*
X177588Y218554D01*
X174202Y218554D02*
X174111Y218556D01*
X174020Y218562D01*
X173929Y218572D01*
X173839Y218585D01*
X173750Y218603D01*
X173661Y218624D01*
X173574Y218649D01*
X173487Y218678D01*
X173402Y218711D01*
X173319Y218747D01*
X173237Y218787D01*
X173157Y218830D01*
X173078Y218877D01*
X173002Y218927D01*
X172928Y218980D01*
X172857Y219036D01*
X172788Y219096D01*
X172721Y219158D01*
X172658Y219223D01*
X172597Y219291D01*
X172539Y219361D01*
X172484Y219434D01*
X172432Y219509D01*
X172384Y219586D01*
X172339Y219666D01*
X172297Y219747D01*
X172259Y219829D01*
X172225Y219914D01*
X172194Y220000D01*
X172167Y220087D01*
X172144Y220175D01*
X172125Y220264D01*
X172109Y220353D01*
X172097Y220444D01*
X172089Y220534D01*
X172085Y220625D01*
X172085Y220717D01*
X172089Y220808D01*
X172097Y220898D01*
X172109Y220989D01*
X172125Y221078D01*
X172144Y221167D01*
X172167Y221255D01*
X172194Y221342D01*
X172225Y221428D01*
X172259Y221513D01*
X172297Y221595D01*
X172339Y221676D01*
X172384Y221756D01*
X172432Y221833D01*
X172484Y221908D01*
X172539Y221981D01*
X172597Y222051D01*
X172658Y222119D01*
X172721Y222184D01*
X172788Y222246D01*
X172857Y222306D01*
X172928Y222362D01*
X173002Y222415D01*
X173078Y222465D01*
X173157Y222512D01*
X173237Y222555D01*
X173319Y222595D01*
X173402Y222631D01*
X173487Y222664D01*
X173574Y222693D01*
X173661Y222718D01*
X173750Y222739D01*
X173839Y222757D01*
X173929Y222770D01*
X174020Y222780D01*
X174111Y222786D01*
X174202Y222788D01*
X177588Y222788D01*
X177679Y222786D01*
X177770Y222780D01*
X177861Y222770D01*
X177951Y222757D01*
X178040Y222739D01*
X178129Y222718D01*
X178216Y222693D01*
X178303Y222664D01*
X178388Y222631D01*
X178471Y222595D01*
X178553Y222555D01*
X178633Y222512D01*
X178712Y222465D01*
X178788Y222415D01*
X178862Y222362D01*
X178933Y222306D01*
X179002Y222246D01*
X179069Y222184D01*
X179132Y222119D01*
X179193Y222051D01*
X179251Y221981D01*
X179306Y221908D01*
X179358Y221833D01*
X179406Y221756D01*
X179451Y221676D01*
X179493Y221595D01*
X179531Y221513D01*
X179565Y221428D01*
X179596Y221342D01*
X179623Y221255D01*
X179646Y221167D01*
X179665Y221078D01*
X179681Y220989D01*
X179693Y220898D01*
X179701Y220808D01*
X179705Y220717D01*
X179705Y220625D01*
X179701Y220534D01*
X179693Y220444D01*
X179681Y220353D01*
X179665Y220264D01*
X179646Y220175D01*
X179623Y220087D01*
X179596Y220000D01*
X179565Y219914D01*
X179531Y219829D01*
X179493Y219747D01*
X179451Y219666D01*
X179406Y219586D01*
X179358Y219509D01*
X179306Y219434D01*
X179251Y219361D01*
X179193Y219291D01*
X179132Y219223D01*
X179069Y219158D01*
X179002Y219096D01*
X178933Y219036D01*
X178862Y218980D01*
X178788Y218927D01*
X178712Y218877D01*
X178633Y218830D01*
X178553Y218787D01*
X178471Y218747D01*
X178388Y218711D01*
X178303Y218678D01*
X178216Y218649D01*
X178129Y218624D01*
X178040Y218603D01*
X177951Y218585D01*
X177861Y218572D01*
X177770Y218562D01*
X177679Y218556D01*
X177588Y218554D01*
X175895Y226556D02*
X175737Y226558D01*
X175579Y226564D01*
X175421Y226574D01*
X175263Y226588D01*
X175106Y226606D01*
X174949Y226628D01*
X174793Y226653D01*
X174638Y226683D01*
X174483Y226717D01*
X174329Y226754D01*
X174177Y226796D01*
X174025Y226841D01*
X173875Y226890D01*
X173725Y226943D01*
X173578Y226999D01*
X173431Y227060D01*
X173287Y227123D01*
X173144Y227191D01*
X173143Y227191D02*
X173070Y227218D01*
X172999Y227248D01*
X172929Y227282D01*
X172861Y227320D01*
X172795Y227361D01*
X172731Y227405D01*
X172669Y227452D01*
X172610Y227502D01*
X172553Y227555D01*
X172499Y227611D01*
X172448Y227670D01*
X172400Y227730D01*
X172355Y227794D01*
X172313Y227859D01*
X172274Y227926D01*
X172239Y227996D01*
X172207Y228067D01*
X172179Y228139D01*
X172154Y228213D01*
X172133Y228287D01*
X172116Y228363D01*
X172102Y228440D01*
X172093Y228517D01*
X172087Y228594D01*
X172085Y228672D01*
X172087Y228750D01*
X172093Y228827D01*
X172102Y228904D01*
X172116Y228981D01*
X172133Y229057D01*
X172154Y229131D01*
X172179Y229205D01*
X172207Y229277D01*
X172239Y229348D01*
X172274Y229418D01*
X172313Y229485D01*
X172355Y229550D01*
X172400Y229614D01*
X172448Y229674D01*
X172499Y229733D01*
X172553Y229789D01*
X172610Y229842D01*
X172669Y229892D01*
X172731Y229939D01*
X172795Y229983D01*
X172861Y230024D01*
X172929Y230062D01*
X172999Y230096D01*
X173070Y230126D01*
X173143Y230153D01*
X173144Y230153D02*
X173287Y230221D01*
X173431Y230284D01*
X173578Y230345D01*
X173725Y230401D01*
X173875Y230454D01*
X174025Y230503D01*
X174177Y230548D01*
X174329Y230590D01*
X174483Y230627D01*
X174638Y230661D01*
X174793Y230691D01*
X174949Y230716D01*
X175106Y230738D01*
X175263Y230756D01*
X175421Y230770D01*
X175579Y230780D01*
X175737Y230786D01*
X175895Y230788D01*
X175895Y226555D02*
X176053Y226557D01*
X176211Y226563D01*
X176369Y226573D01*
X176527Y226587D01*
X176684Y226605D01*
X176841Y226627D01*
X176997Y226652D01*
X177152Y226682D01*
X177307Y226716D01*
X177461Y226753D01*
X177614Y226795D01*
X177765Y226840D01*
X177916Y226889D01*
X178065Y226942D01*
X178213Y226998D01*
X178359Y227059D01*
X178504Y227123D01*
X178647Y227190D01*
X178647Y227191D02*
X178720Y227218D01*
X178791Y227248D01*
X178861Y227282D01*
X178929Y227320D01*
X178995Y227361D01*
X179059Y227405D01*
X179121Y227452D01*
X179180Y227502D01*
X179237Y227555D01*
X179291Y227611D01*
X179342Y227670D01*
X179390Y227730D01*
X179436Y227794D01*
X179477Y227859D01*
X179516Y227926D01*
X179551Y227996D01*
X179583Y228067D01*
X179611Y228139D01*
X179636Y228213D01*
X179657Y228287D01*
X179674Y228363D01*
X179688Y228440D01*
X179697Y228517D01*
X179703Y228594D01*
X179705Y228672D01*
X178647Y230154D02*
X178504Y230221D01*
X178359Y230285D01*
X178213Y230346D01*
X178065Y230402D01*
X177916Y230455D01*
X177765Y230504D01*
X177614Y230549D01*
X177461Y230591D01*
X177307Y230628D01*
X177152Y230662D01*
X176997Y230692D01*
X176841Y230717D01*
X176684Y230739D01*
X176527Y230757D01*
X176369Y230771D01*
X176211Y230781D01*
X176053Y230787D01*
X175895Y230789D01*
X178647Y230153D02*
X178720Y230126D01*
X178791Y230096D01*
X178861Y230062D01*
X178929Y230024D01*
X178995Y229983D01*
X179059Y229939D01*
X179121Y229892D01*
X179180Y229842D01*
X179237Y229789D01*
X179291Y229733D01*
X179342Y229674D01*
X179390Y229614D01*
X179435Y229550D01*
X179477Y229485D01*
X179516Y229418D01*
X179551Y229348D01*
X179583Y229277D01*
X179611Y229205D01*
X179636Y229131D01*
X179657Y229057D01*
X179674Y228981D01*
X179688Y228904D01*
X179697Y228827D01*
X179703Y228750D01*
X179705Y228672D01*
X178012Y226979D02*
X173778Y230365D01*
X200872Y201718D02*
X200872Y200448D01*
X200872Y201718D02*
X205105Y201718D01*
X205105Y199178D01*
X205103Y199097D01*
X205097Y199017D01*
X205088Y198937D01*
X205074Y198858D01*
X205057Y198779D01*
X205036Y198701D01*
X205012Y198624D01*
X204984Y198549D01*
X204952Y198475D01*
X204917Y198402D01*
X204878Y198332D01*
X204836Y198263D01*
X204791Y198196D01*
X204743Y198131D01*
X204691Y198069D01*
X204637Y198010D01*
X204580Y197953D01*
X204521Y197899D01*
X204459Y197847D01*
X204394Y197799D01*
X204327Y197754D01*
X204259Y197712D01*
X204188Y197673D01*
X204115Y197638D01*
X204041Y197606D01*
X203966Y197578D01*
X203889Y197554D01*
X203811Y197533D01*
X203732Y197516D01*
X203653Y197502D01*
X203573Y197493D01*
X203493Y197487D01*
X203412Y197485D01*
X199178Y197485D01*
X199097Y197487D01*
X199017Y197493D01*
X198937Y197502D01*
X198858Y197516D01*
X198779Y197533D01*
X198701Y197554D01*
X198624Y197578D01*
X198549Y197606D01*
X198475Y197638D01*
X198402Y197673D01*
X198332Y197712D01*
X198263Y197754D01*
X198196Y197799D01*
X198131Y197847D01*
X198069Y197898D01*
X198010Y197953D01*
X197953Y198010D01*
X197899Y198069D01*
X197847Y198131D01*
X197799Y198196D01*
X197754Y198263D01*
X197712Y198331D01*
X197673Y198402D01*
X197638Y198475D01*
X197606Y198549D01*
X197578Y198624D01*
X197554Y198701D01*
X197533Y198779D01*
X197516Y198858D01*
X197502Y198937D01*
X197493Y199017D01*
X197487Y199097D01*
X197485Y199178D01*
X197485Y201718D01*
X197485Y206184D02*
X205105Y206184D01*
X197485Y206184D02*
X197485Y208301D01*
X197487Y208392D01*
X197493Y208483D01*
X197503Y208574D01*
X197516Y208664D01*
X197534Y208753D01*
X197555Y208842D01*
X197580Y208929D01*
X197609Y209016D01*
X197642Y209101D01*
X197678Y209184D01*
X197718Y209266D01*
X197761Y209346D01*
X197808Y209425D01*
X197858Y209501D01*
X197911Y209575D01*
X197967Y209646D01*
X198027Y209715D01*
X198089Y209782D01*
X198154Y209845D01*
X198222Y209906D01*
X198292Y209964D01*
X198365Y210019D01*
X198440Y210071D01*
X198517Y210119D01*
X198597Y210164D01*
X198678Y210206D01*
X198760Y210244D01*
X198845Y210278D01*
X198931Y210309D01*
X199018Y210336D01*
X199106Y210359D01*
X199195Y210378D01*
X199284Y210394D01*
X199375Y210406D01*
X199465Y210414D01*
X199556Y210418D01*
X199648Y210418D01*
X199739Y210414D01*
X199829Y210406D01*
X199920Y210394D01*
X200009Y210378D01*
X200098Y210359D01*
X200186Y210336D01*
X200273Y210309D01*
X200359Y210278D01*
X200444Y210244D01*
X200526Y210206D01*
X200607Y210164D01*
X200687Y210119D01*
X200764Y210071D01*
X200839Y210019D01*
X200912Y209964D01*
X200982Y209906D01*
X201050Y209845D01*
X201115Y209782D01*
X201177Y209715D01*
X201237Y209646D01*
X201293Y209575D01*
X201346Y209501D01*
X201396Y209425D01*
X201443Y209346D01*
X201486Y209266D01*
X201526Y209184D01*
X201562Y209101D01*
X201595Y209016D01*
X201624Y208929D01*
X201649Y208842D01*
X201670Y208753D01*
X201688Y208664D01*
X201701Y208574D01*
X201711Y208483D01*
X201717Y208392D01*
X201719Y208301D01*
X201718Y208301D02*
X201718Y206184D01*
X205105Y214270D02*
X197485Y214270D01*
X205105Y213423D02*
X205105Y215117D01*
X197485Y215117D02*
X197485Y213423D01*
X199602Y218554D02*
X202988Y218554D01*
X199602Y218554D02*
X199511Y218556D01*
X199420Y218562D01*
X199329Y218572D01*
X199239Y218585D01*
X199150Y218603D01*
X199061Y218624D01*
X198974Y218649D01*
X198887Y218678D01*
X198802Y218711D01*
X198719Y218747D01*
X198637Y218787D01*
X198557Y218830D01*
X198478Y218877D01*
X198402Y218927D01*
X198328Y218980D01*
X198257Y219036D01*
X198188Y219096D01*
X198121Y219158D01*
X198058Y219223D01*
X197997Y219291D01*
X197939Y219361D01*
X197884Y219434D01*
X197832Y219509D01*
X197784Y219586D01*
X197739Y219666D01*
X197697Y219747D01*
X197659Y219829D01*
X197625Y219914D01*
X197594Y220000D01*
X197567Y220087D01*
X197544Y220175D01*
X197525Y220264D01*
X197509Y220353D01*
X197497Y220444D01*
X197489Y220534D01*
X197485Y220625D01*
X197485Y220717D01*
X197489Y220808D01*
X197497Y220898D01*
X197509Y220989D01*
X197525Y221078D01*
X197544Y221167D01*
X197567Y221255D01*
X197594Y221342D01*
X197625Y221428D01*
X197659Y221513D01*
X197697Y221595D01*
X197739Y221676D01*
X197784Y221756D01*
X197832Y221833D01*
X197884Y221908D01*
X197939Y221981D01*
X197997Y222051D01*
X198058Y222119D01*
X198121Y222184D01*
X198188Y222246D01*
X198257Y222306D01*
X198328Y222362D01*
X198402Y222415D01*
X198478Y222465D01*
X198557Y222512D01*
X198637Y222555D01*
X198719Y222595D01*
X198802Y222631D01*
X198887Y222664D01*
X198974Y222693D01*
X199061Y222718D01*
X199150Y222739D01*
X199239Y222757D01*
X199329Y222770D01*
X199420Y222780D01*
X199511Y222786D01*
X199602Y222788D01*
X202988Y222788D01*
X203079Y222786D01*
X203170Y222780D01*
X203261Y222770D01*
X203351Y222757D01*
X203440Y222739D01*
X203529Y222718D01*
X203616Y222693D01*
X203703Y222664D01*
X203788Y222631D01*
X203871Y222595D01*
X203953Y222555D01*
X204033Y222512D01*
X204112Y222465D01*
X204188Y222415D01*
X204262Y222362D01*
X204333Y222306D01*
X204402Y222246D01*
X204469Y222184D01*
X204532Y222119D01*
X204593Y222051D01*
X204651Y221981D01*
X204706Y221908D01*
X204758Y221833D01*
X204806Y221756D01*
X204851Y221676D01*
X204893Y221595D01*
X204931Y221513D01*
X204965Y221428D01*
X204996Y221342D01*
X205023Y221255D01*
X205046Y221167D01*
X205065Y221078D01*
X205081Y220989D01*
X205093Y220898D01*
X205101Y220808D01*
X205105Y220717D01*
X205105Y220625D01*
X205101Y220534D01*
X205093Y220444D01*
X205081Y220353D01*
X205065Y220264D01*
X205046Y220175D01*
X205023Y220087D01*
X204996Y220000D01*
X204965Y219914D01*
X204931Y219829D01*
X204893Y219747D01*
X204851Y219666D01*
X204806Y219586D01*
X204758Y219509D01*
X204706Y219434D01*
X204651Y219361D01*
X204593Y219291D01*
X204532Y219223D01*
X204469Y219158D01*
X204402Y219096D01*
X204333Y219036D01*
X204262Y218980D01*
X204188Y218927D01*
X204112Y218877D01*
X204033Y218830D01*
X203953Y218787D01*
X203871Y218747D01*
X203788Y218711D01*
X203703Y218678D01*
X203616Y218649D01*
X203529Y218624D01*
X203440Y218603D01*
X203351Y218585D01*
X203261Y218572D01*
X203170Y218562D01*
X203079Y218556D01*
X202988Y218554D01*
X197485Y228884D02*
X197487Y228969D01*
X197493Y229055D01*
X197502Y229140D01*
X197516Y229224D01*
X197533Y229308D01*
X197554Y229391D01*
X197578Y229473D01*
X197606Y229553D01*
X197638Y229633D01*
X197674Y229711D01*
X197712Y229787D01*
X197755Y229861D01*
X197800Y229933D01*
X197849Y230004D01*
X197901Y230072D01*
X197955Y230137D01*
X198013Y230200D01*
X198074Y230261D01*
X198137Y230319D01*
X198202Y230373D01*
X198270Y230425D01*
X198341Y230474D01*
X198413Y230519D01*
X198487Y230562D01*
X198563Y230600D01*
X198641Y230636D01*
X198721Y230668D01*
X198801Y230696D01*
X198883Y230720D01*
X198966Y230741D01*
X199050Y230758D01*
X199134Y230772D01*
X199219Y230781D01*
X199305Y230787D01*
X199390Y230789D01*
X197485Y228884D02*
X197487Y228788D01*
X197493Y228692D01*
X197502Y228596D01*
X197515Y228501D01*
X197532Y228406D01*
X197553Y228312D01*
X197577Y228219D01*
X197605Y228127D01*
X197636Y228036D01*
X197672Y227947D01*
X197710Y227859D01*
X197752Y227772D01*
X197797Y227687D01*
X197846Y227605D01*
X197898Y227524D01*
X197953Y227445D01*
X198011Y227368D01*
X198072Y227294D01*
X198136Y227222D01*
X198203Y227153D01*
X198272Y227086D01*
X198344Y227022D01*
X198418Y226961D01*
X198495Y226903D01*
X198574Y226848D01*
X198655Y226797D01*
X198738Y226748D01*
X198823Y226703D01*
X198910Y226661D01*
X198998Y226622D01*
X199087Y226587D01*
X199178Y226556D01*
X200872Y230153D02*
X200810Y230215D01*
X200746Y230274D01*
X200680Y230330D01*
X200611Y230384D01*
X200540Y230434D01*
X200466Y230482D01*
X200391Y230526D01*
X200314Y230567D01*
X200236Y230605D01*
X200156Y230639D01*
X200074Y230670D01*
X199991Y230698D01*
X199908Y230721D01*
X199823Y230742D01*
X199737Y230758D01*
X199651Y230771D01*
X199564Y230781D01*
X199477Y230786D01*
X199390Y230788D01*
X200872Y230154D02*
X205105Y226555D01*
X205105Y230789D01*
X153035Y219922D02*
X145415Y219922D01*
X145415Y222038D02*
X145415Y217805D01*
X153035Y224849D02*
X145415Y229929D01*
X145415Y224849D02*
X153035Y229929D01*
X128905Y217805D02*
X121285Y217805D01*
X121285Y219922D01*
X121287Y220013D01*
X121293Y220104D01*
X121303Y220195D01*
X121316Y220285D01*
X121334Y220374D01*
X121355Y220463D01*
X121380Y220550D01*
X121409Y220637D01*
X121442Y220722D01*
X121478Y220805D01*
X121518Y220887D01*
X121561Y220967D01*
X121608Y221046D01*
X121658Y221122D01*
X121711Y221196D01*
X121767Y221267D01*
X121827Y221336D01*
X121889Y221403D01*
X121954Y221466D01*
X122022Y221527D01*
X122092Y221585D01*
X122165Y221640D01*
X122240Y221692D01*
X122317Y221740D01*
X122397Y221785D01*
X122478Y221827D01*
X122560Y221865D01*
X122645Y221899D01*
X122731Y221930D01*
X122818Y221957D01*
X122906Y221980D01*
X122995Y221999D01*
X123084Y222015D01*
X123175Y222027D01*
X123265Y222035D01*
X123356Y222039D01*
X123448Y222039D01*
X123539Y222035D01*
X123629Y222027D01*
X123720Y222015D01*
X123809Y221999D01*
X123898Y221980D01*
X123986Y221957D01*
X124073Y221930D01*
X124159Y221899D01*
X124244Y221865D01*
X124326Y221827D01*
X124407Y221785D01*
X124487Y221740D01*
X124564Y221692D01*
X124639Y221640D01*
X124712Y221585D01*
X124782Y221527D01*
X124850Y221466D01*
X124915Y221403D01*
X124977Y221336D01*
X125037Y221267D01*
X125093Y221196D01*
X125146Y221122D01*
X125196Y221046D01*
X125243Y220967D01*
X125286Y220887D01*
X125326Y220805D01*
X125362Y220722D01*
X125395Y220637D01*
X125424Y220550D01*
X125449Y220463D01*
X125470Y220374D01*
X125488Y220285D01*
X125501Y220195D01*
X125511Y220104D01*
X125517Y220013D01*
X125519Y219922D01*
X125518Y219922D02*
X125518Y217805D01*
X125518Y220345D02*
X128905Y222038D01*
X128905Y225311D02*
X121285Y230391D01*
X121285Y225311D02*
X128905Y230391D01*
X287697Y263525D02*
X290237Y263525D01*
X290318Y263527D01*
X290398Y263533D01*
X290478Y263542D01*
X290557Y263556D01*
X290636Y263573D01*
X290714Y263594D01*
X290791Y263618D01*
X290866Y263646D01*
X290940Y263678D01*
X291013Y263713D01*
X291084Y263752D01*
X291152Y263794D01*
X291219Y263839D01*
X291284Y263887D01*
X291346Y263939D01*
X291405Y263993D01*
X291462Y264050D01*
X291516Y264109D01*
X291568Y264171D01*
X291616Y264236D01*
X291661Y264303D01*
X291703Y264372D01*
X291742Y264442D01*
X291777Y264515D01*
X291809Y264589D01*
X291837Y264664D01*
X291861Y264741D01*
X291882Y264819D01*
X291899Y264898D01*
X291913Y264977D01*
X291922Y265057D01*
X291928Y265137D01*
X291930Y265218D01*
X291931Y265218D02*
X291931Y266065D01*
X291930Y266065D02*
X291928Y266146D01*
X291922Y266226D01*
X291913Y266306D01*
X291899Y266385D01*
X291882Y266464D01*
X291861Y266542D01*
X291837Y266619D01*
X291809Y266694D01*
X291777Y266768D01*
X291742Y266841D01*
X291703Y266912D01*
X291661Y266980D01*
X291616Y267047D01*
X291568Y267112D01*
X291516Y267174D01*
X291462Y267233D01*
X291405Y267290D01*
X291346Y267344D01*
X291284Y267396D01*
X291219Y267444D01*
X291152Y267489D01*
X291084Y267531D01*
X291013Y267570D01*
X290940Y267605D01*
X290866Y267637D01*
X290791Y267665D01*
X290714Y267689D01*
X290636Y267710D01*
X290557Y267727D01*
X290478Y267741D01*
X290398Y267750D01*
X290318Y267756D01*
X290237Y267758D01*
X287697Y267758D01*
X287697Y271145D01*
X291931Y271145D01*
X295275Y271145D02*
X297815Y263525D01*
X300355Y271145D01*
X251756Y263525D02*
X249640Y263525D01*
X251756Y263525D02*
X251847Y263527D01*
X251938Y263533D01*
X252029Y263543D01*
X252119Y263556D01*
X252208Y263574D01*
X252297Y263595D01*
X252384Y263620D01*
X252471Y263649D01*
X252556Y263682D01*
X252639Y263718D01*
X252721Y263758D01*
X252801Y263801D01*
X252880Y263848D01*
X252956Y263898D01*
X253030Y263951D01*
X253101Y264007D01*
X253170Y264067D01*
X253237Y264129D01*
X253300Y264194D01*
X253361Y264262D01*
X253419Y264332D01*
X253474Y264405D01*
X253526Y264480D01*
X253574Y264557D01*
X253619Y264637D01*
X253661Y264718D01*
X253699Y264800D01*
X253733Y264885D01*
X253764Y264971D01*
X253791Y265058D01*
X253814Y265146D01*
X253833Y265235D01*
X253849Y265324D01*
X253861Y265415D01*
X253869Y265505D01*
X253873Y265596D01*
X253873Y265688D01*
X253869Y265779D01*
X253861Y265869D01*
X253849Y265960D01*
X253833Y266049D01*
X253814Y266138D01*
X253791Y266226D01*
X253764Y266313D01*
X253733Y266399D01*
X253699Y266484D01*
X253661Y266566D01*
X253619Y266647D01*
X253574Y266727D01*
X253526Y266804D01*
X253474Y266879D01*
X253419Y266952D01*
X253361Y267022D01*
X253300Y267090D01*
X253237Y267155D01*
X253170Y267217D01*
X253101Y267277D01*
X253030Y267333D01*
X252956Y267386D01*
X252880Y267436D01*
X252801Y267483D01*
X252721Y267526D01*
X252639Y267566D01*
X252556Y267602D01*
X252471Y267635D01*
X252384Y267664D01*
X252297Y267689D01*
X252208Y267710D01*
X252119Y267728D01*
X252029Y267741D01*
X251938Y267751D01*
X251847Y267757D01*
X251756Y267759D01*
X252180Y271145D02*
X249640Y271145D01*
X252180Y271145D02*
X252261Y271143D01*
X252341Y271137D01*
X252421Y271128D01*
X252500Y271114D01*
X252579Y271097D01*
X252657Y271076D01*
X252734Y271052D01*
X252809Y271024D01*
X252883Y270992D01*
X252956Y270957D01*
X253026Y270918D01*
X253095Y270876D01*
X253162Y270831D01*
X253227Y270783D01*
X253289Y270731D01*
X253348Y270677D01*
X253405Y270620D01*
X253459Y270561D01*
X253511Y270499D01*
X253559Y270434D01*
X253604Y270367D01*
X253646Y270299D01*
X253685Y270228D01*
X253720Y270155D01*
X253752Y270081D01*
X253780Y270006D01*
X253804Y269929D01*
X253825Y269851D01*
X253842Y269772D01*
X253856Y269693D01*
X253865Y269613D01*
X253871Y269533D01*
X253873Y269452D01*
X253871Y269371D01*
X253865Y269291D01*
X253856Y269211D01*
X253842Y269132D01*
X253825Y269053D01*
X253804Y268975D01*
X253780Y268898D01*
X253752Y268823D01*
X253720Y268749D01*
X253685Y268676D01*
X253646Y268606D01*
X253604Y268537D01*
X253559Y268470D01*
X253511Y268405D01*
X253459Y268343D01*
X253405Y268284D01*
X253348Y268227D01*
X253289Y268173D01*
X253227Y268121D01*
X253162Y268073D01*
X253095Y268028D01*
X253027Y267986D01*
X252956Y267947D01*
X252883Y267912D01*
X252809Y267880D01*
X252734Y267852D01*
X252657Y267828D01*
X252579Y267807D01*
X252500Y267790D01*
X252421Y267776D01*
X252341Y267767D01*
X252261Y267761D01*
X252180Y267759D01*
X252180Y267758D02*
X250486Y267758D01*
X257217Y271145D02*
X259757Y263525D01*
X262297Y271145D01*
X265642Y263525D02*
X267758Y263525D01*
X267849Y263527D01*
X267940Y263533D01*
X268031Y263543D01*
X268121Y263556D01*
X268210Y263574D01*
X268299Y263595D01*
X268386Y263620D01*
X268473Y263649D01*
X268558Y263682D01*
X268641Y263718D01*
X268723Y263758D01*
X268803Y263801D01*
X268882Y263848D01*
X268958Y263898D01*
X269032Y263951D01*
X269103Y264007D01*
X269172Y264067D01*
X269239Y264129D01*
X269302Y264194D01*
X269363Y264262D01*
X269421Y264332D01*
X269476Y264405D01*
X269528Y264480D01*
X269576Y264557D01*
X269621Y264637D01*
X269663Y264718D01*
X269701Y264800D01*
X269735Y264885D01*
X269766Y264971D01*
X269793Y265058D01*
X269816Y265146D01*
X269835Y265235D01*
X269851Y265324D01*
X269863Y265415D01*
X269871Y265505D01*
X269875Y265596D01*
X269875Y265688D01*
X269871Y265779D01*
X269863Y265869D01*
X269851Y265960D01*
X269835Y266049D01*
X269816Y266138D01*
X269793Y266226D01*
X269766Y266313D01*
X269735Y266399D01*
X269701Y266484D01*
X269663Y266566D01*
X269621Y266647D01*
X269576Y266727D01*
X269528Y266804D01*
X269476Y266879D01*
X269421Y266952D01*
X269363Y267022D01*
X269302Y267090D01*
X269239Y267155D01*
X269172Y267217D01*
X269103Y267277D01*
X269032Y267333D01*
X268958Y267386D01*
X268882Y267436D01*
X268803Y267483D01*
X268723Y267526D01*
X268641Y267566D01*
X268558Y267602D01*
X268473Y267635D01*
X268386Y267664D01*
X268299Y267689D01*
X268210Y267710D01*
X268121Y267728D01*
X268031Y267741D01*
X267940Y267751D01*
X267849Y267757D01*
X267758Y267759D01*
X268182Y271145D02*
X265642Y271145D01*
X268182Y271145D02*
X268263Y271143D01*
X268343Y271137D01*
X268423Y271128D01*
X268502Y271114D01*
X268581Y271097D01*
X268659Y271076D01*
X268736Y271052D01*
X268811Y271024D01*
X268885Y270992D01*
X268958Y270957D01*
X269029Y270918D01*
X269097Y270876D01*
X269164Y270831D01*
X269229Y270783D01*
X269291Y270731D01*
X269350Y270677D01*
X269407Y270620D01*
X269461Y270561D01*
X269513Y270499D01*
X269561Y270434D01*
X269606Y270367D01*
X269648Y270299D01*
X269687Y270228D01*
X269722Y270155D01*
X269754Y270081D01*
X269782Y270006D01*
X269806Y269929D01*
X269827Y269851D01*
X269844Y269772D01*
X269858Y269693D01*
X269867Y269613D01*
X269873Y269533D01*
X269875Y269452D01*
X269873Y269371D01*
X269867Y269291D01*
X269858Y269211D01*
X269844Y269132D01*
X269827Y269053D01*
X269806Y268975D01*
X269782Y268898D01*
X269754Y268823D01*
X269722Y268749D01*
X269687Y268676D01*
X269648Y268606D01*
X269606Y268537D01*
X269561Y268470D01*
X269513Y268405D01*
X269461Y268343D01*
X269407Y268284D01*
X269350Y268227D01*
X269291Y268173D01*
X269229Y268121D01*
X269164Y268073D01*
X269097Y268028D01*
X269029Y267986D01*
X268958Y267947D01*
X268885Y267912D01*
X268811Y267880D01*
X268736Y267852D01*
X268659Y267828D01*
X268581Y267807D01*
X268502Y267790D01*
X268423Y267776D01*
X268343Y267767D01*
X268263Y267761D01*
X268182Y267759D01*
X268182Y267758D02*
X266488Y267758D01*
D12*
X198972Y136652D02*
X196573Y136652D01*
X198972Y136652D02*
X199069Y136654D01*
X199165Y136660D01*
X199261Y136669D01*
X199357Y136683D01*
X199452Y136700D01*
X199546Y136722D01*
X199639Y136747D01*
X199732Y136775D01*
X199823Y136808D01*
X199912Y136844D01*
X200000Y136884D01*
X200087Y136927D01*
X200172Y136973D01*
X200254Y137023D01*
X200335Y137077D01*
X200413Y137133D01*
X200489Y137193D01*
X200563Y137255D01*
X200634Y137321D01*
X200702Y137389D01*
X200768Y137460D01*
X200830Y137534D01*
X200890Y137610D01*
X200946Y137688D01*
X201000Y137769D01*
X201050Y137852D01*
X201096Y137936D01*
X201139Y138023D01*
X201179Y138111D01*
X201215Y138200D01*
X201248Y138291D01*
X201276Y138384D01*
X201301Y138477D01*
X201323Y138571D01*
X201340Y138666D01*
X201354Y138762D01*
X201363Y138858D01*
X201369Y138954D01*
X201371Y139051D01*
X201369Y139148D01*
X201363Y139244D01*
X201354Y139340D01*
X201340Y139436D01*
X201323Y139531D01*
X201301Y139625D01*
X201276Y139718D01*
X201248Y139811D01*
X201215Y139902D01*
X201179Y139991D01*
X201139Y140079D01*
X201096Y140166D01*
X201050Y140250D01*
X201000Y140333D01*
X200946Y140414D01*
X200890Y140492D01*
X200830Y140568D01*
X200768Y140642D01*
X200702Y140713D01*
X200634Y140781D01*
X200563Y140847D01*
X200489Y140909D01*
X200413Y140969D01*
X200335Y141025D01*
X200254Y141079D01*
X200172Y141129D01*
X200087Y141175D01*
X200000Y141218D01*
X199912Y141258D01*
X199823Y141294D01*
X199732Y141327D01*
X199639Y141355D01*
X199546Y141380D01*
X199452Y141402D01*
X199357Y141419D01*
X199261Y141433D01*
X199165Y141442D01*
X199069Y141448D01*
X198972Y141450D01*
X199451Y145288D02*
X196573Y145288D01*
X199451Y145288D02*
X199537Y145286D01*
X199623Y145280D01*
X199709Y145271D01*
X199794Y145257D01*
X199878Y145240D01*
X199962Y145219D01*
X200044Y145194D01*
X200125Y145166D01*
X200205Y145134D01*
X200284Y145098D01*
X200360Y145059D01*
X200435Y145016D01*
X200508Y144971D01*
X200579Y144922D01*
X200647Y144869D01*
X200714Y144814D01*
X200777Y144756D01*
X200838Y144695D01*
X200896Y144632D01*
X200951Y144565D01*
X201004Y144497D01*
X201053Y144426D01*
X201098Y144353D01*
X201141Y144278D01*
X201180Y144202D01*
X201216Y144123D01*
X201248Y144043D01*
X201276Y143962D01*
X201301Y143880D01*
X201322Y143796D01*
X201339Y143712D01*
X201353Y143627D01*
X201362Y143541D01*
X201368Y143455D01*
X201370Y143369D01*
X201368Y143283D01*
X201362Y143197D01*
X201353Y143111D01*
X201339Y143026D01*
X201322Y142942D01*
X201301Y142858D01*
X201276Y142776D01*
X201248Y142695D01*
X201216Y142615D01*
X201180Y142536D01*
X201141Y142460D01*
X201098Y142385D01*
X201053Y142312D01*
X201004Y142241D01*
X200951Y142173D01*
X200896Y142106D01*
X200838Y142043D01*
X200777Y141982D01*
X200714Y141924D01*
X200647Y141869D01*
X200579Y141816D01*
X200508Y141767D01*
X200435Y141722D01*
X200360Y141679D01*
X200284Y141640D01*
X200205Y141604D01*
X200125Y141572D01*
X200044Y141544D01*
X199962Y141519D01*
X199878Y141498D01*
X199794Y141481D01*
X199709Y141467D01*
X199623Y141458D01*
X199537Y141452D01*
X199451Y141450D01*
X197532Y141450D01*
X205717Y138571D02*
X207636Y145288D01*
X205717Y138571D02*
X210515Y138571D01*
X209075Y140490D02*
X209075Y136652D01*
X217500Y145288D02*
X217592Y145286D01*
X217683Y145280D01*
X217774Y145271D01*
X217865Y145257D01*
X217955Y145240D01*
X218044Y145218D01*
X218132Y145193D01*
X218219Y145165D01*
X218305Y145132D01*
X218389Y145096D01*
X218472Y145057D01*
X218553Y145014D01*
X218632Y144967D01*
X218709Y144918D01*
X218784Y144865D01*
X218856Y144809D01*
X218926Y144750D01*
X218994Y144688D01*
X219059Y144623D01*
X219121Y144555D01*
X219180Y144485D01*
X219236Y144413D01*
X219289Y144338D01*
X219338Y144261D01*
X219385Y144182D01*
X219428Y144101D01*
X219467Y144018D01*
X219503Y143934D01*
X219536Y143848D01*
X219564Y143761D01*
X219589Y143673D01*
X219611Y143584D01*
X219628Y143494D01*
X219642Y143403D01*
X219651Y143312D01*
X219657Y143221D01*
X219659Y143129D01*
X217500Y145288D02*
X217397Y145286D01*
X217295Y145280D01*
X217193Y145271D01*
X217091Y145258D01*
X216990Y145241D01*
X216889Y145220D01*
X216790Y145196D01*
X216691Y145167D01*
X216594Y145136D01*
X216497Y145100D01*
X216402Y145062D01*
X216309Y145019D01*
X216217Y144973D01*
X216127Y144924D01*
X216039Y144872D01*
X215952Y144816D01*
X215868Y144757D01*
X215787Y144696D01*
X215707Y144631D01*
X215630Y144563D01*
X215555Y144492D01*
X215484Y144419D01*
X215415Y144343D01*
X215348Y144265D01*
X215285Y144184D01*
X215225Y144101D01*
X215168Y144016D01*
X215114Y143929D01*
X215063Y143839D01*
X215016Y143748D01*
X214972Y143656D01*
X214931Y143561D01*
X214894Y143466D01*
X214861Y143369D01*
X218939Y141450D02*
X219006Y141516D01*
X219070Y141585D01*
X219131Y141656D01*
X219189Y141730D01*
X219244Y141806D01*
X219296Y141884D01*
X219345Y141964D01*
X219391Y142046D01*
X219433Y142130D01*
X219472Y142216D01*
X219507Y142303D01*
X219538Y142391D01*
X219566Y142481D01*
X219591Y142571D01*
X219612Y142663D01*
X219629Y142755D01*
X219642Y142848D01*
X219651Y142941D01*
X219657Y143035D01*
X219659Y143129D01*
X218939Y141450D02*
X214861Y136652D01*
X219659Y136652D01*
X225486Y140010D02*
X227645Y140010D01*
X225486Y140010D02*
X225405Y140008D01*
X225324Y140002D01*
X225243Y139992D01*
X225163Y139979D01*
X225084Y139961D01*
X225006Y139940D01*
X224929Y139915D01*
X224853Y139886D01*
X224778Y139854D01*
X224706Y139818D01*
X224635Y139778D01*
X224566Y139735D01*
X224499Y139689D01*
X224435Y139640D01*
X224373Y139588D01*
X224313Y139532D01*
X224257Y139474D01*
X224203Y139414D01*
X224152Y139350D01*
X224104Y139285D01*
X224060Y139217D01*
X224019Y139147D01*
X223981Y139075D01*
X223947Y139002D01*
X223916Y138926D01*
X223889Y138850D01*
X223866Y138772D01*
X223847Y138693D01*
X223831Y138614D01*
X223819Y138533D01*
X223811Y138453D01*
X223807Y138372D01*
X223807Y138290D01*
X223811Y138209D01*
X223819Y138129D01*
X223831Y138048D01*
X223847Y137969D01*
X223866Y137890D01*
X223889Y137812D01*
X223916Y137736D01*
X223947Y137660D01*
X223981Y137587D01*
X224019Y137515D01*
X224060Y137445D01*
X224104Y137377D01*
X224152Y137312D01*
X224203Y137248D01*
X224257Y137188D01*
X224313Y137130D01*
X224373Y137074D01*
X224435Y137022D01*
X224499Y136973D01*
X224566Y136927D01*
X224635Y136884D01*
X224706Y136844D01*
X224778Y136808D01*
X224853Y136776D01*
X224929Y136747D01*
X225006Y136722D01*
X225084Y136701D01*
X225163Y136683D01*
X225243Y136670D01*
X225324Y136660D01*
X225405Y136654D01*
X225486Y136652D01*
X227645Y136652D01*
X227645Y140970D01*
X227643Y141045D01*
X227637Y141120D01*
X227627Y141195D01*
X227614Y141269D01*
X227596Y141342D01*
X227575Y141415D01*
X227549Y141486D01*
X227521Y141555D01*
X227488Y141623D01*
X227452Y141690D01*
X227413Y141754D01*
X227370Y141816D01*
X227324Y141876D01*
X227275Y141933D01*
X227224Y141988D01*
X227169Y142039D01*
X227112Y142088D01*
X227052Y142134D01*
X226990Y142177D01*
X226926Y142216D01*
X226859Y142252D01*
X226791Y142285D01*
X226722Y142313D01*
X226651Y142339D01*
X226578Y142360D01*
X226505Y142378D01*
X226431Y142391D01*
X226356Y142401D01*
X226281Y142407D01*
X226206Y142409D01*
X224287Y142409D01*
X232477Y142409D02*
X232477Y133773D01*
X232477Y142409D02*
X234876Y142409D01*
X234951Y142407D01*
X235026Y142401D01*
X235101Y142391D01*
X235175Y142378D01*
X235248Y142360D01*
X235321Y142339D01*
X235392Y142313D01*
X235461Y142285D01*
X235529Y142252D01*
X235595Y142216D01*
X235660Y142177D01*
X235722Y142134D01*
X235782Y142088D01*
X235839Y142039D01*
X235894Y141988D01*
X235945Y141933D01*
X235994Y141876D01*
X236040Y141816D01*
X236083Y141754D01*
X236122Y141690D01*
X236158Y141623D01*
X236191Y141555D01*
X236219Y141486D01*
X236245Y141415D01*
X236266Y141342D01*
X236284Y141269D01*
X236297Y141195D01*
X236307Y141120D01*
X236313Y141045D01*
X236315Y140970D01*
X236315Y138091D01*
X236313Y138016D01*
X236307Y137941D01*
X236297Y137866D01*
X236284Y137792D01*
X236266Y137719D01*
X236245Y137646D01*
X236219Y137575D01*
X236191Y137506D01*
X236158Y137438D01*
X236122Y137372D01*
X236083Y137307D01*
X236040Y137245D01*
X235994Y137185D01*
X235945Y137128D01*
X235894Y137073D01*
X235839Y137022D01*
X235782Y136973D01*
X235722Y136927D01*
X235660Y136884D01*
X235596Y136845D01*
X235529Y136809D01*
X235461Y136776D01*
X235392Y136748D01*
X235321Y136722D01*
X235248Y136701D01*
X235175Y136683D01*
X235101Y136670D01*
X235026Y136660D01*
X234951Y136654D01*
X234876Y136652D01*
X232477Y136652D01*
X240707Y133773D02*
X240707Y142409D01*
X243105Y142409D01*
X243180Y142407D01*
X243255Y142401D01*
X243330Y142391D01*
X243404Y142378D01*
X243477Y142360D01*
X243550Y142339D01*
X243621Y142313D01*
X243690Y142285D01*
X243758Y142252D01*
X243824Y142216D01*
X243889Y142177D01*
X243951Y142134D01*
X244011Y142088D01*
X244068Y142039D01*
X244123Y141988D01*
X244174Y141933D01*
X244223Y141876D01*
X244269Y141816D01*
X244312Y141754D01*
X244351Y141690D01*
X244387Y141623D01*
X244420Y141555D01*
X244448Y141486D01*
X244474Y141415D01*
X244495Y141342D01*
X244513Y141269D01*
X244526Y141195D01*
X244536Y141120D01*
X244542Y141045D01*
X244544Y140970D01*
X244545Y140970D02*
X244545Y138091D01*
X244544Y138091D02*
X244542Y138016D01*
X244536Y137941D01*
X244526Y137866D01*
X244513Y137792D01*
X244495Y137719D01*
X244474Y137646D01*
X244448Y137575D01*
X244420Y137506D01*
X244387Y137438D01*
X244351Y137372D01*
X244312Y137307D01*
X244269Y137245D01*
X244223Y137185D01*
X244174Y137128D01*
X244123Y137073D01*
X244068Y137022D01*
X244011Y136973D01*
X243951Y136927D01*
X243889Y136884D01*
X243825Y136845D01*
X243758Y136809D01*
X243690Y136776D01*
X243621Y136748D01*
X243550Y136722D01*
X243477Y136701D01*
X243404Y136683D01*
X243330Y136670D01*
X243255Y136660D01*
X243180Y136654D01*
X243105Y136652D01*
X240707Y136652D01*
X249283Y140010D02*
X251682Y139051D01*
X249283Y140010D02*
X249220Y140037D01*
X249158Y140068D01*
X249098Y140103D01*
X249040Y140140D01*
X248984Y140181D01*
X248931Y140224D01*
X248880Y140271D01*
X248832Y140320D01*
X248786Y140372D01*
X248744Y140427D01*
X248704Y140484D01*
X248668Y140542D01*
X248635Y140603D01*
X248606Y140666D01*
X248580Y140729D01*
X248557Y140795D01*
X248539Y140861D01*
X248524Y140929D01*
X248512Y140997D01*
X248505Y141065D01*
X248501Y141134D01*
X248502Y141203D01*
X248506Y141272D01*
X248514Y141341D01*
X248525Y141409D01*
X248541Y141476D01*
X248560Y141543D01*
X248582Y141608D01*
X248609Y141672D01*
X248639Y141734D01*
X248672Y141794D01*
X248709Y141853D01*
X248748Y141909D01*
X248791Y141964D01*
X248837Y142015D01*
X248885Y142064D01*
X248937Y142111D01*
X248990Y142154D01*
X249046Y142194D01*
X249105Y142231D01*
X249165Y142265D01*
X249227Y142296D01*
X249290Y142323D01*
X249355Y142346D01*
X249421Y142366D01*
X249488Y142382D01*
X249556Y142395D01*
X249625Y142403D01*
X249694Y142408D01*
X249763Y142409D01*
X249902Y142406D01*
X250041Y142398D01*
X250180Y142387D01*
X250318Y142373D01*
X250456Y142355D01*
X250594Y142334D01*
X250731Y142309D01*
X250867Y142280D01*
X251003Y142248D01*
X251137Y142213D01*
X251271Y142174D01*
X251404Y142132D01*
X251535Y142086D01*
X251665Y142037D01*
X251794Y141985D01*
X251922Y141930D01*
X251682Y139051D02*
X251745Y139024D01*
X251807Y138993D01*
X251867Y138958D01*
X251925Y138921D01*
X251981Y138880D01*
X252034Y138837D01*
X252085Y138790D01*
X252133Y138741D01*
X252179Y138689D01*
X252221Y138634D01*
X252261Y138577D01*
X252297Y138519D01*
X252330Y138458D01*
X252359Y138396D01*
X252385Y138332D01*
X252408Y138266D01*
X252426Y138200D01*
X252441Y138132D01*
X252453Y138064D01*
X252460Y137996D01*
X252464Y137927D01*
X252463Y137858D01*
X252459Y137789D01*
X252451Y137720D01*
X252440Y137652D01*
X252424Y137585D01*
X252405Y137518D01*
X252383Y137453D01*
X252356Y137389D01*
X252326Y137327D01*
X252293Y137267D01*
X252256Y137208D01*
X252217Y137152D01*
X252174Y137097D01*
X252128Y137046D01*
X252080Y136997D01*
X252028Y136950D01*
X251975Y136907D01*
X251919Y136867D01*
X251860Y136830D01*
X251800Y136796D01*
X251738Y136765D01*
X251675Y136738D01*
X251610Y136715D01*
X251544Y136695D01*
X251477Y136679D01*
X251409Y136666D01*
X251340Y136658D01*
X251271Y136653D01*
X251202Y136652D01*
X251203Y136652D02*
X251010Y136657D01*
X250818Y136666D01*
X250626Y136681D01*
X250435Y136699D01*
X250244Y136722D01*
X250053Y136750D01*
X249863Y136782D01*
X249674Y136819D01*
X249486Y136860D01*
X249299Y136906D01*
X249114Y136956D01*
X248929Y137010D01*
X248746Y137069D01*
X248564Y137132D01*
X256034Y137132D02*
X256034Y136652D01*
X256034Y137132D02*
X256514Y137132D01*
X256514Y136652D01*
X256034Y136652D01*
X260451Y136652D02*
X260451Y142409D01*
X262850Y142409D01*
X262925Y142407D01*
X263000Y142401D01*
X263075Y142391D01*
X263149Y142378D01*
X263222Y142360D01*
X263295Y142339D01*
X263366Y142313D01*
X263435Y142285D01*
X263503Y142252D01*
X263569Y142216D01*
X263634Y142177D01*
X263696Y142134D01*
X263756Y142088D01*
X263813Y142039D01*
X263868Y141988D01*
X263919Y141933D01*
X263968Y141876D01*
X264014Y141816D01*
X264057Y141754D01*
X264096Y141690D01*
X264132Y141623D01*
X264165Y141555D01*
X264193Y141486D01*
X264219Y141415D01*
X264240Y141342D01*
X264258Y141269D01*
X264271Y141195D01*
X264281Y141120D01*
X264287Y141045D01*
X264289Y140970D01*
X264289Y136652D01*
X270120Y136652D02*
X272518Y136652D01*
X270120Y136652D02*
X270045Y136654D01*
X269970Y136660D01*
X269895Y136670D01*
X269821Y136683D01*
X269748Y136701D01*
X269675Y136722D01*
X269604Y136748D01*
X269535Y136776D01*
X269467Y136809D01*
X269401Y136845D01*
X269336Y136884D01*
X269274Y136927D01*
X269214Y136973D01*
X269157Y137022D01*
X269102Y137073D01*
X269051Y137128D01*
X269002Y137185D01*
X268956Y137245D01*
X268913Y137307D01*
X268874Y137372D01*
X268838Y137438D01*
X268805Y137506D01*
X268777Y137575D01*
X268751Y137646D01*
X268730Y137719D01*
X268712Y137792D01*
X268699Y137866D01*
X268689Y137941D01*
X268683Y138016D01*
X268681Y138091D01*
X268680Y138091D02*
X268680Y140490D01*
X268682Y140576D01*
X268688Y140662D01*
X268697Y140748D01*
X268711Y140833D01*
X268728Y140917D01*
X268749Y141001D01*
X268774Y141083D01*
X268802Y141164D01*
X268834Y141244D01*
X268870Y141323D01*
X268909Y141399D01*
X268952Y141474D01*
X268997Y141547D01*
X269046Y141618D01*
X269099Y141686D01*
X269154Y141753D01*
X269212Y141816D01*
X269273Y141877D01*
X269336Y141935D01*
X269403Y141990D01*
X269471Y142043D01*
X269542Y142092D01*
X269615Y142137D01*
X269690Y142180D01*
X269766Y142219D01*
X269845Y142255D01*
X269925Y142287D01*
X270006Y142315D01*
X270088Y142340D01*
X270172Y142361D01*
X270256Y142378D01*
X270341Y142392D01*
X270427Y142401D01*
X270513Y142407D01*
X270599Y142409D01*
X270685Y142407D01*
X270771Y142401D01*
X270857Y142392D01*
X270942Y142378D01*
X271026Y142361D01*
X271110Y142340D01*
X271192Y142315D01*
X271273Y142287D01*
X271353Y142255D01*
X271432Y142219D01*
X271508Y142180D01*
X271583Y142137D01*
X271656Y142092D01*
X271727Y142043D01*
X271795Y141990D01*
X271862Y141935D01*
X271925Y141877D01*
X271986Y141816D01*
X272044Y141753D01*
X272099Y141686D01*
X272152Y141618D01*
X272201Y141547D01*
X272246Y141474D01*
X272289Y141399D01*
X272328Y141323D01*
X272364Y141244D01*
X272396Y141164D01*
X272424Y141083D01*
X272449Y141001D01*
X272470Y140917D01*
X272487Y140833D01*
X272501Y140748D01*
X272510Y140662D01*
X272516Y140576D01*
X272518Y140490D01*
X272518Y139531D01*
X268680Y139531D01*
X275759Y142409D02*
X278638Y142409D01*
X276719Y145288D02*
X276719Y138091D01*
X276721Y138018D01*
X276726Y137945D01*
X276736Y137873D01*
X276748Y137801D01*
X276765Y137730D01*
X276785Y137660D01*
X276809Y137591D01*
X276836Y137524D01*
X276866Y137457D01*
X276900Y137393D01*
X276937Y137330D01*
X276977Y137269D01*
X277020Y137210D01*
X277066Y137154D01*
X277115Y137100D01*
X277167Y137048D01*
X277221Y136999D01*
X277277Y136953D01*
X277336Y136910D01*
X277397Y136870D01*
X277460Y136833D01*
X277524Y136799D01*
X277591Y136769D01*
X277658Y136742D01*
X277727Y136718D01*
X277797Y136698D01*
X277868Y136681D01*
X277940Y136669D01*
X278012Y136659D01*
X278085Y136654D01*
X278158Y136652D01*
X278638Y136652D01*
D11*
X232283Y229235D02*
X230759Y229235D01*
X230682Y229237D01*
X230605Y229243D01*
X230528Y229253D01*
X230452Y229266D01*
X230377Y229284D01*
X230303Y229305D01*
X230230Y229330D01*
X230158Y229359D01*
X230088Y229391D01*
X230019Y229426D01*
X229953Y229466D01*
X229888Y229508D01*
X229826Y229554D01*
X229766Y229603D01*
X229709Y229654D01*
X229654Y229709D01*
X229603Y229766D01*
X229554Y229826D01*
X229508Y229888D01*
X229466Y229953D01*
X229426Y230019D01*
X229391Y230088D01*
X229359Y230158D01*
X229330Y230230D01*
X229305Y230303D01*
X229284Y230377D01*
X229266Y230452D01*
X229253Y230528D01*
X229243Y230605D01*
X229237Y230682D01*
X229235Y230759D01*
X229235Y234569D01*
X229237Y234646D01*
X229243Y234723D01*
X229253Y234800D01*
X229266Y234876D01*
X229284Y234951D01*
X229305Y235025D01*
X229330Y235098D01*
X229359Y235170D01*
X229391Y235240D01*
X229426Y235309D01*
X229466Y235375D01*
X229508Y235440D01*
X229554Y235502D01*
X229603Y235562D01*
X229654Y235619D01*
X229709Y235674D01*
X229766Y235725D01*
X229826Y235774D01*
X229888Y235820D01*
X229953Y235862D01*
X230019Y235902D01*
X230088Y235937D01*
X230158Y235969D01*
X230230Y235998D01*
X230303Y236023D01*
X230377Y236044D01*
X230452Y236062D01*
X230528Y236075D01*
X230605Y236085D01*
X230682Y236091D01*
X230759Y236093D01*
X232283Y236093D01*
X235362Y234569D02*
X237267Y236093D01*
X237267Y229235D01*
X235362Y229235D02*
X239172Y229235D01*
X370459Y229235D02*
X371983Y229235D01*
X370459Y229235D02*
X370382Y229237D01*
X370305Y229243D01*
X370228Y229253D01*
X370152Y229266D01*
X370077Y229284D01*
X370003Y229305D01*
X369930Y229330D01*
X369858Y229359D01*
X369788Y229391D01*
X369719Y229426D01*
X369653Y229466D01*
X369588Y229508D01*
X369526Y229554D01*
X369466Y229603D01*
X369409Y229654D01*
X369354Y229709D01*
X369303Y229766D01*
X369254Y229826D01*
X369208Y229888D01*
X369166Y229953D01*
X369126Y230019D01*
X369091Y230088D01*
X369059Y230158D01*
X369030Y230230D01*
X369005Y230303D01*
X368984Y230377D01*
X368966Y230452D01*
X368953Y230528D01*
X368943Y230605D01*
X368937Y230682D01*
X368935Y230759D01*
X368935Y234569D01*
X368937Y234646D01*
X368943Y234723D01*
X368953Y234800D01*
X368966Y234876D01*
X368984Y234951D01*
X369005Y235025D01*
X369030Y235098D01*
X369059Y235170D01*
X369091Y235240D01*
X369126Y235309D01*
X369166Y235375D01*
X369208Y235440D01*
X369254Y235502D01*
X369303Y235562D01*
X369354Y235619D01*
X369409Y235674D01*
X369466Y235725D01*
X369526Y235774D01*
X369588Y235820D01*
X369653Y235862D01*
X369719Y235902D01*
X369788Y235937D01*
X369858Y235969D01*
X369930Y235998D01*
X370003Y236023D01*
X370077Y236044D01*
X370152Y236062D01*
X370228Y236075D01*
X370305Y236085D01*
X370382Y236091D01*
X370459Y236093D01*
X371983Y236093D01*
X375062Y229235D02*
X376967Y229235D01*
X377052Y229237D01*
X377138Y229243D01*
X377223Y229252D01*
X377307Y229266D01*
X377391Y229283D01*
X377474Y229304D01*
X377556Y229328D01*
X377636Y229356D01*
X377716Y229388D01*
X377794Y229424D01*
X377870Y229462D01*
X377944Y229505D01*
X378016Y229550D01*
X378087Y229599D01*
X378155Y229651D01*
X378220Y229705D01*
X378283Y229763D01*
X378344Y229824D01*
X378402Y229887D01*
X378456Y229952D01*
X378508Y230020D01*
X378557Y230091D01*
X378602Y230163D01*
X378645Y230237D01*
X378683Y230313D01*
X378719Y230391D01*
X378751Y230471D01*
X378779Y230551D01*
X378803Y230633D01*
X378824Y230716D01*
X378841Y230800D01*
X378855Y230884D01*
X378864Y230969D01*
X378870Y231055D01*
X378872Y231140D01*
X378870Y231225D01*
X378864Y231311D01*
X378855Y231396D01*
X378841Y231480D01*
X378824Y231564D01*
X378803Y231647D01*
X378779Y231729D01*
X378751Y231809D01*
X378719Y231889D01*
X378683Y231967D01*
X378645Y232043D01*
X378602Y232117D01*
X378557Y232189D01*
X378508Y232260D01*
X378456Y232328D01*
X378402Y232393D01*
X378344Y232456D01*
X378283Y232517D01*
X378220Y232575D01*
X378155Y232629D01*
X378087Y232681D01*
X378016Y232730D01*
X377944Y232775D01*
X377870Y232818D01*
X377794Y232856D01*
X377716Y232892D01*
X377636Y232924D01*
X377556Y232952D01*
X377474Y232976D01*
X377391Y232997D01*
X377307Y233014D01*
X377223Y233028D01*
X377138Y233037D01*
X377052Y233043D01*
X376967Y233045D01*
X377348Y236093D02*
X375062Y236093D01*
X377348Y236093D02*
X377425Y236091D01*
X377502Y236085D01*
X377579Y236075D01*
X377655Y236062D01*
X377730Y236044D01*
X377804Y236023D01*
X377877Y235998D01*
X377949Y235969D01*
X378019Y235937D01*
X378088Y235902D01*
X378154Y235862D01*
X378219Y235820D01*
X378281Y235774D01*
X378341Y235725D01*
X378398Y235674D01*
X378453Y235619D01*
X378504Y235562D01*
X378553Y235502D01*
X378599Y235440D01*
X378641Y235375D01*
X378681Y235309D01*
X378716Y235240D01*
X378748Y235170D01*
X378777Y235098D01*
X378802Y235025D01*
X378823Y234951D01*
X378841Y234876D01*
X378854Y234800D01*
X378864Y234723D01*
X378870Y234646D01*
X378872Y234569D01*
X378870Y234492D01*
X378864Y234415D01*
X378854Y234338D01*
X378841Y234262D01*
X378823Y234187D01*
X378802Y234113D01*
X378777Y234040D01*
X378748Y233968D01*
X378716Y233898D01*
X378681Y233829D01*
X378641Y233763D01*
X378599Y233698D01*
X378553Y233636D01*
X378504Y233576D01*
X378453Y233519D01*
X378398Y233464D01*
X378341Y233413D01*
X378281Y233364D01*
X378219Y233318D01*
X378154Y233276D01*
X378088Y233236D01*
X378019Y233201D01*
X377949Y233169D01*
X377877Y233140D01*
X377804Y233115D01*
X377730Y233094D01*
X377655Y233076D01*
X377579Y233063D01*
X377502Y233053D01*
X377425Y233047D01*
X377348Y233045D01*
X375824Y233045D01*
X374523Y172085D02*
X372999Y172085D01*
X372922Y172087D01*
X372845Y172093D01*
X372768Y172103D01*
X372692Y172116D01*
X372617Y172134D01*
X372543Y172155D01*
X372470Y172180D01*
X372398Y172209D01*
X372328Y172241D01*
X372259Y172276D01*
X372193Y172316D01*
X372128Y172358D01*
X372066Y172404D01*
X372006Y172453D01*
X371949Y172504D01*
X371894Y172559D01*
X371843Y172616D01*
X371794Y172676D01*
X371748Y172738D01*
X371706Y172803D01*
X371666Y172869D01*
X371631Y172938D01*
X371599Y173008D01*
X371570Y173080D01*
X371545Y173153D01*
X371524Y173227D01*
X371506Y173302D01*
X371493Y173378D01*
X371483Y173455D01*
X371477Y173532D01*
X371475Y173609D01*
X371475Y177419D01*
X371477Y177496D01*
X371483Y177573D01*
X371493Y177650D01*
X371506Y177726D01*
X371524Y177801D01*
X371545Y177875D01*
X371570Y177948D01*
X371599Y178020D01*
X371631Y178090D01*
X371666Y178159D01*
X371706Y178225D01*
X371748Y178290D01*
X371794Y178352D01*
X371843Y178412D01*
X371894Y178469D01*
X371949Y178524D01*
X372006Y178575D01*
X372066Y178624D01*
X372128Y178670D01*
X372193Y178712D01*
X372259Y178752D01*
X372328Y178787D01*
X372398Y178819D01*
X372470Y178848D01*
X372543Y178873D01*
X372617Y178894D01*
X372692Y178912D01*
X372768Y178925D01*
X372845Y178935D01*
X372922Y178941D01*
X372999Y178943D01*
X374523Y178943D01*
X379126Y178943D02*
X377602Y173609D01*
X381412Y173609D01*
X380269Y175133D02*
X380269Y172085D01*
X330835Y159893D02*
X330835Y153035D01*
X330835Y159893D02*
X332740Y159893D01*
X332825Y159891D01*
X332911Y159885D01*
X332996Y159876D01*
X333080Y159862D01*
X333164Y159845D01*
X333247Y159824D01*
X333329Y159800D01*
X333409Y159772D01*
X333489Y159740D01*
X333567Y159704D01*
X333643Y159666D01*
X333717Y159623D01*
X333789Y159578D01*
X333860Y159529D01*
X333928Y159477D01*
X333993Y159423D01*
X334056Y159365D01*
X334117Y159304D01*
X334175Y159241D01*
X334229Y159176D01*
X334281Y159108D01*
X334330Y159037D01*
X334375Y158965D01*
X334418Y158891D01*
X334456Y158815D01*
X334492Y158737D01*
X334524Y158657D01*
X334552Y158577D01*
X334576Y158495D01*
X334597Y158412D01*
X334614Y158328D01*
X334628Y158244D01*
X334637Y158159D01*
X334643Y158073D01*
X334645Y157988D01*
X334643Y157903D01*
X334637Y157817D01*
X334628Y157732D01*
X334614Y157648D01*
X334597Y157564D01*
X334576Y157481D01*
X334552Y157399D01*
X334524Y157319D01*
X334492Y157239D01*
X334456Y157161D01*
X334418Y157085D01*
X334375Y157011D01*
X334330Y156939D01*
X334281Y156868D01*
X334229Y156800D01*
X334175Y156735D01*
X334117Y156672D01*
X334056Y156611D01*
X333993Y156553D01*
X333928Y156499D01*
X333860Y156447D01*
X333789Y156398D01*
X333717Y156353D01*
X333643Y156310D01*
X333567Y156272D01*
X333489Y156236D01*
X333409Y156204D01*
X333329Y156176D01*
X333247Y156152D01*
X333164Y156131D01*
X333080Y156114D01*
X332996Y156100D01*
X332911Y156091D01*
X332825Y156085D01*
X332740Y156083D01*
X330835Y156083D01*
X333121Y156083D02*
X334645Y153035D01*
X338346Y153035D02*
X341394Y153035D01*
X338346Y153035D02*
X338346Y159893D01*
X341394Y159893D01*
X340632Y156845D02*
X338346Y156845D01*
X347331Y156845D02*
X348474Y156845D01*
X348474Y153035D01*
X346188Y153035D01*
X346111Y153037D01*
X346034Y153043D01*
X345957Y153053D01*
X345881Y153066D01*
X345806Y153084D01*
X345732Y153105D01*
X345659Y153130D01*
X345587Y153159D01*
X345517Y153191D01*
X345448Y153226D01*
X345382Y153266D01*
X345317Y153308D01*
X345255Y153354D01*
X345195Y153403D01*
X345138Y153454D01*
X345083Y153509D01*
X345032Y153566D01*
X344983Y153626D01*
X344937Y153688D01*
X344895Y153753D01*
X344855Y153819D01*
X344820Y153888D01*
X344788Y153958D01*
X344759Y154030D01*
X344734Y154103D01*
X344713Y154177D01*
X344695Y154252D01*
X344682Y154328D01*
X344672Y154405D01*
X344666Y154482D01*
X344664Y154559D01*
X344664Y158369D01*
X344666Y158446D01*
X344672Y158523D01*
X344682Y158600D01*
X344695Y158676D01*
X344713Y158751D01*
X344734Y158825D01*
X344759Y158898D01*
X344788Y158970D01*
X344820Y159040D01*
X344855Y159109D01*
X344895Y159175D01*
X344937Y159240D01*
X344983Y159302D01*
X345032Y159362D01*
X345083Y159419D01*
X345138Y159474D01*
X345195Y159525D01*
X345255Y159574D01*
X345317Y159620D01*
X345382Y159662D01*
X345448Y159702D01*
X345517Y159737D01*
X345587Y159769D01*
X345659Y159798D01*
X345732Y159823D01*
X345806Y159844D01*
X345881Y159862D01*
X345957Y159875D01*
X346034Y159885D01*
X346111Y159891D01*
X346188Y159893D01*
X348474Y159893D01*
X387985Y15113D02*
X387985Y8255D01*
X387985Y15113D02*
X389890Y15113D01*
X389975Y15111D01*
X390061Y15105D01*
X390146Y15096D01*
X390230Y15082D01*
X390314Y15065D01*
X390397Y15044D01*
X390479Y15020D01*
X390559Y14992D01*
X390639Y14960D01*
X390717Y14924D01*
X390793Y14886D01*
X390867Y14843D01*
X390939Y14798D01*
X391010Y14749D01*
X391078Y14697D01*
X391143Y14643D01*
X391206Y14585D01*
X391267Y14524D01*
X391325Y14461D01*
X391379Y14396D01*
X391431Y14328D01*
X391480Y14257D01*
X391525Y14185D01*
X391568Y14111D01*
X391606Y14035D01*
X391642Y13957D01*
X391674Y13877D01*
X391702Y13797D01*
X391726Y13715D01*
X391747Y13632D01*
X391764Y13548D01*
X391778Y13464D01*
X391787Y13379D01*
X391793Y13293D01*
X391795Y13208D01*
X391793Y13123D01*
X391787Y13037D01*
X391778Y12952D01*
X391764Y12868D01*
X391747Y12784D01*
X391726Y12701D01*
X391702Y12619D01*
X391674Y12539D01*
X391642Y12459D01*
X391606Y12381D01*
X391568Y12305D01*
X391525Y12231D01*
X391480Y12159D01*
X391431Y12088D01*
X391379Y12020D01*
X391325Y11955D01*
X391267Y11892D01*
X391206Y11831D01*
X391143Y11773D01*
X391078Y11719D01*
X391010Y11667D01*
X390939Y11618D01*
X390867Y11573D01*
X390793Y11530D01*
X390717Y11492D01*
X390639Y11456D01*
X390559Y11424D01*
X390479Y11396D01*
X390397Y11372D01*
X390314Y11351D01*
X390230Y11334D01*
X390146Y11320D01*
X390061Y11311D01*
X389975Y11305D01*
X389890Y11303D01*
X387985Y11303D01*
X390271Y11303D02*
X391795Y8255D01*
X395496Y8255D02*
X398544Y8255D01*
X395496Y8255D02*
X395496Y15113D01*
X398544Y15113D01*
X397782Y12065D02*
X395496Y12065D01*
X403613Y8255D02*
X403690Y8257D01*
X403767Y8263D01*
X403844Y8273D01*
X403920Y8286D01*
X403995Y8304D01*
X404069Y8325D01*
X404142Y8350D01*
X404214Y8379D01*
X404284Y8411D01*
X404353Y8446D01*
X404419Y8486D01*
X404484Y8528D01*
X404546Y8574D01*
X404606Y8623D01*
X404663Y8674D01*
X404718Y8729D01*
X404769Y8786D01*
X404818Y8846D01*
X404864Y8908D01*
X404906Y8973D01*
X404946Y9039D01*
X404981Y9108D01*
X405013Y9178D01*
X405042Y9250D01*
X405067Y9323D01*
X405088Y9397D01*
X405106Y9472D01*
X405119Y9548D01*
X405129Y9625D01*
X405135Y9702D01*
X405137Y9779D01*
X403613Y8255D02*
X403503Y8257D01*
X403392Y8263D01*
X403282Y8272D01*
X403172Y8285D01*
X403063Y8302D01*
X402955Y8323D01*
X402847Y8347D01*
X402740Y8376D01*
X402634Y8407D01*
X402530Y8443D01*
X402426Y8482D01*
X402324Y8524D01*
X402224Y8570D01*
X402125Y8620D01*
X402028Y8672D01*
X401932Y8729D01*
X401839Y8788D01*
X401748Y8850D01*
X401659Y8916D01*
X401572Y8984D01*
X401488Y9056D01*
X401406Y9130D01*
X401327Y9207D01*
X401517Y13589D02*
X401519Y13666D01*
X401525Y13743D01*
X401535Y13820D01*
X401548Y13896D01*
X401566Y13971D01*
X401587Y14045D01*
X401612Y14118D01*
X401641Y14190D01*
X401673Y14260D01*
X401708Y14329D01*
X401748Y14395D01*
X401790Y14460D01*
X401836Y14522D01*
X401885Y14582D01*
X401936Y14639D01*
X401991Y14694D01*
X402048Y14745D01*
X402108Y14794D01*
X402170Y14840D01*
X402235Y14882D01*
X402301Y14922D01*
X402370Y14957D01*
X402440Y14989D01*
X402512Y15018D01*
X402585Y15043D01*
X402659Y15064D01*
X402734Y15082D01*
X402810Y15095D01*
X402887Y15105D01*
X402964Y15111D01*
X403041Y15113D01*
X403041Y15114D02*
X403143Y15112D01*
X403245Y15107D01*
X403347Y15098D01*
X403448Y15085D01*
X403549Y15068D01*
X403649Y15049D01*
X403749Y15025D01*
X403847Y14998D01*
X403945Y14967D01*
X404041Y14933D01*
X404136Y14896D01*
X404230Y14855D01*
X404322Y14811D01*
X404412Y14763D01*
X404501Y14713D01*
X404588Y14659D01*
X404673Y14602D01*
X404756Y14542D01*
X402279Y12255D02*
X402214Y12296D01*
X402151Y12339D01*
X402091Y12386D01*
X402032Y12436D01*
X401977Y12488D01*
X401924Y12543D01*
X401873Y12601D01*
X401826Y12661D01*
X401782Y12724D01*
X401740Y12788D01*
X401702Y12854D01*
X401668Y12923D01*
X401637Y12993D01*
X401609Y13064D01*
X401585Y13136D01*
X401564Y13210D01*
X401547Y13285D01*
X401534Y13360D01*
X401525Y13436D01*
X401519Y13512D01*
X401517Y13589D01*
X404375Y11113D02*
X404440Y11072D01*
X404503Y11029D01*
X404563Y10982D01*
X404622Y10932D01*
X404677Y10880D01*
X404730Y10825D01*
X404781Y10767D01*
X404828Y10707D01*
X404872Y10644D01*
X404914Y10580D01*
X404952Y10514D01*
X404986Y10445D01*
X405017Y10375D01*
X405045Y10304D01*
X405069Y10232D01*
X405090Y10158D01*
X405107Y10083D01*
X405120Y10008D01*
X405129Y9932D01*
X405135Y9856D01*
X405137Y9779D01*
X404375Y11113D02*
X402279Y12256D01*
X408663Y8255D02*
X411711Y8255D01*
X408663Y8255D02*
X408663Y15113D01*
X411711Y15113D01*
X410949Y12065D02*
X408663Y12065D01*
X416155Y15113D02*
X416155Y8255D01*
X414250Y15113D02*
X418060Y15113D01*
X308483Y9525D02*
X305435Y9525D01*
X305435Y16383D01*
X308483Y16383D01*
X307721Y13335D02*
X305435Y13335D01*
X313552Y9525D02*
X313629Y9527D01*
X313706Y9533D01*
X313783Y9543D01*
X313859Y9556D01*
X313934Y9574D01*
X314008Y9595D01*
X314081Y9620D01*
X314153Y9649D01*
X314223Y9681D01*
X314292Y9716D01*
X314358Y9756D01*
X314423Y9798D01*
X314485Y9844D01*
X314545Y9893D01*
X314602Y9944D01*
X314657Y9999D01*
X314708Y10056D01*
X314757Y10116D01*
X314803Y10178D01*
X314845Y10243D01*
X314885Y10309D01*
X314920Y10378D01*
X314952Y10448D01*
X314981Y10520D01*
X315006Y10593D01*
X315027Y10667D01*
X315045Y10742D01*
X315058Y10818D01*
X315068Y10895D01*
X315074Y10972D01*
X315076Y11049D01*
X313552Y9525D02*
X313442Y9527D01*
X313331Y9533D01*
X313221Y9542D01*
X313111Y9555D01*
X313002Y9572D01*
X312894Y9593D01*
X312786Y9617D01*
X312679Y9646D01*
X312573Y9677D01*
X312469Y9713D01*
X312365Y9752D01*
X312263Y9794D01*
X312163Y9840D01*
X312064Y9890D01*
X311967Y9942D01*
X311871Y9999D01*
X311778Y10058D01*
X311687Y10120D01*
X311598Y10186D01*
X311511Y10254D01*
X311427Y10326D01*
X311345Y10400D01*
X311266Y10477D01*
X311456Y14859D02*
X311458Y14936D01*
X311464Y15013D01*
X311474Y15090D01*
X311487Y15166D01*
X311505Y15241D01*
X311526Y15315D01*
X311551Y15388D01*
X311580Y15460D01*
X311612Y15530D01*
X311647Y15599D01*
X311687Y15665D01*
X311729Y15730D01*
X311775Y15792D01*
X311824Y15852D01*
X311875Y15909D01*
X311930Y15964D01*
X311987Y16015D01*
X312047Y16064D01*
X312109Y16110D01*
X312174Y16152D01*
X312240Y16192D01*
X312309Y16227D01*
X312379Y16259D01*
X312451Y16288D01*
X312524Y16313D01*
X312598Y16334D01*
X312673Y16352D01*
X312749Y16365D01*
X312826Y16375D01*
X312903Y16381D01*
X312980Y16383D01*
X312980Y16384D02*
X313082Y16382D01*
X313184Y16377D01*
X313286Y16368D01*
X313387Y16355D01*
X313488Y16338D01*
X313588Y16319D01*
X313688Y16295D01*
X313786Y16268D01*
X313884Y16237D01*
X313980Y16203D01*
X314075Y16166D01*
X314169Y16125D01*
X314261Y16081D01*
X314351Y16033D01*
X314440Y15983D01*
X314527Y15929D01*
X314612Y15872D01*
X314695Y15812D01*
X312218Y13525D02*
X312153Y13566D01*
X312090Y13609D01*
X312030Y13656D01*
X311971Y13706D01*
X311916Y13758D01*
X311863Y13813D01*
X311812Y13871D01*
X311765Y13931D01*
X311721Y13994D01*
X311679Y14058D01*
X311641Y14124D01*
X311607Y14193D01*
X311576Y14263D01*
X311548Y14334D01*
X311524Y14406D01*
X311503Y14480D01*
X311486Y14555D01*
X311473Y14630D01*
X311464Y14706D01*
X311458Y14782D01*
X311456Y14859D01*
X314314Y12383D02*
X314379Y12342D01*
X314442Y12299D01*
X314502Y12252D01*
X314561Y12202D01*
X314616Y12150D01*
X314669Y12095D01*
X314720Y12037D01*
X314767Y11977D01*
X314811Y11914D01*
X314853Y11850D01*
X314891Y11784D01*
X314925Y11715D01*
X314956Y11645D01*
X314984Y11574D01*
X315008Y11502D01*
X315029Y11428D01*
X315046Y11353D01*
X315059Y11278D01*
X315068Y11202D01*
X315074Y11126D01*
X315076Y11049D01*
X314314Y12383D02*
X312218Y13526D01*
X318741Y16383D02*
X318741Y9525D01*
X318741Y16383D02*
X320646Y16383D01*
X320731Y16381D01*
X320817Y16375D01*
X320902Y16366D01*
X320986Y16352D01*
X321070Y16335D01*
X321153Y16314D01*
X321235Y16290D01*
X321315Y16262D01*
X321395Y16230D01*
X321473Y16194D01*
X321549Y16156D01*
X321623Y16113D01*
X321695Y16068D01*
X321766Y16019D01*
X321834Y15967D01*
X321899Y15913D01*
X321962Y15855D01*
X322023Y15794D01*
X322081Y15731D01*
X322135Y15666D01*
X322187Y15598D01*
X322236Y15527D01*
X322281Y15455D01*
X322324Y15381D01*
X322362Y15305D01*
X322398Y15227D01*
X322430Y15147D01*
X322458Y15067D01*
X322482Y14985D01*
X322503Y14902D01*
X322520Y14818D01*
X322534Y14734D01*
X322543Y14649D01*
X322549Y14563D01*
X322551Y14478D01*
X322549Y14393D01*
X322543Y14307D01*
X322534Y14222D01*
X322520Y14138D01*
X322503Y14054D01*
X322482Y13971D01*
X322458Y13889D01*
X322430Y13809D01*
X322398Y13729D01*
X322362Y13651D01*
X322324Y13575D01*
X322281Y13501D01*
X322236Y13429D01*
X322187Y13358D01*
X322135Y13290D01*
X322081Y13225D01*
X322023Y13162D01*
X321962Y13101D01*
X321899Y13043D01*
X321834Y12989D01*
X321766Y12937D01*
X321695Y12888D01*
X321623Y12843D01*
X321549Y12800D01*
X321473Y12762D01*
X321395Y12726D01*
X321315Y12694D01*
X321235Y12666D01*
X321153Y12642D01*
X321070Y12621D01*
X320986Y12604D01*
X320902Y12590D01*
X320817Y12581D01*
X320731Y12575D01*
X320646Y12573D01*
X318741Y12573D01*
X245745Y69850D02*
X245745Y72898D01*
X245747Y72983D01*
X245753Y73069D01*
X245762Y73154D01*
X245776Y73238D01*
X245793Y73322D01*
X245814Y73405D01*
X245838Y73487D01*
X245866Y73567D01*
X245898Y73647D01*
X245934Y73725D01*
X245972Y73801D01*
X246015Y73875D01*
X246060Y73947D01*
X246109Y74018D01*
X246161Y74086D01*
X246215Y74151D01*
X246273Y74214D01*
X246334Y74275D01*
X246397Y74333D01*
X246462Y74387D01*
X246530Y74439D01*
X246601Y74488D01*
X246673Y74533D01*
X246747Y74576D01*
X246823Y74614D01*
X246901Y74650D01*
X246981Y74682D01*
X247061Y74710D01*
X247143Y74734D01*
X247226Y74755D01*
X247310Y74772D01*
X247394Y74786D01*
X247479Y74795D01*
X247565Y74801D01*
X247650Y74803D01*
X247735Y74801D01*
X247821Y74795D01*
X247906Y74786D01*
X247990Y74772D01*
X248074Y74755D01*
X248157Y74734D01*
X248239Y74710D01*
X248319Y74682D01*
X248399Y74650D01*
X248477Y74614D01*
X248553Y74576D01*
X248627Y74533D01*
X248699Y74488D01*
X248770Y74439D01*
X248838Y74387D01*
X248903Y74333D01*
X248966Y74275D01*
X249027Y74214D01*
X249085Y74151D01*
X249139Y74086D01*
X249191Y74018D01*
X249240Y73947D01*
X249285Y73875D01*
X249328Y73801D01*
X249366Y73725D01*
X249402Y73647D01*
X249434Y73567D01*
X249462Y73487D01*
X249486Y73405D01*
X249507Y73322D01*
X249524Y73238D01*
X249538Y73154D01*
X249547Y73069D01*
X249553Y72983D01*
X249555Y72898D01*
X249555Y69850D01*
X249553Y69765D01*
X249547Y69679D01*
X249538Y69594D01*
X249524Y69510D01*
X249507Y69426D01*
X249486Y69343D01*
X249462Y69261D01*
X249434Y69181D01*
X249402Y69101D01*
X249366Y69023D01*
X249328Y68947D01*
X249285Y68873D01*
X249240Y68801D01*
X249191Y68730D01*
X249139Y68662D01*
X249085Y68597D01*
X249027Y68534D01*
X248966Y68473D01*
X248903Y68415D01*
X248838Y68361D01*
X248770Y68309D01*
X248699Y68260D01*
X248627Y68215D01*
X248553Y68172D01*
X248477Y68134D01*
X248399Y68098D01*
X248319Y68066D01*
X248239Y68038D01*
X248157Y68014D01*
X248074Y67993D01*
X247990Y67976D01*
X247906Y67962D01*
X247821Y67953D01*
X247735Y67947D01*
X247650Y67945D01*
X247565Y67947D01*
X247479Y67953D01*
X247394Y67962D01*
X247310Y67976D01*
X247226Y67993D01*
X247143Y68014D01*
X247061Y68038D01*
X246981Y68066D01*
X246901Y68098D01*
X246823Y68134D01*
X246747Y68172D01*
X246673Y68215D01*
X246601Y68260D01*
X246530Y68309D01*
X246462Y68361D01*
X246397Y68415D01*
X246334Y68473D01*
X246273Y68534D01*
X246215Y68597D01*
X246161Y68662D01*
X246109Y68730D01*
X246060Y68801D01*
X246015Y68873D01*
X245972Y68947D01*
X245934Y69023D01*
X245898Y69101D01*
X245866Y69181D01*
X245838Y69261D01*
X245814Y69343D01*
X245793Y69426D01*
X245776Y69510D01*
X245762Y69594D01*
X245753Y69679D01*
X245747Y69765D01*
X245745Y69850D01*
X248793Y69469D02*
X250317Y67945D01*
X252674Y73279D02*
X254579Y74803D01*
X254579Y67945D01*
X252674Y67945D02*
X256484Y67945D01*
X247015Y45085D02*
X240157Y45085D01*
X240157Y46990D01*
X240159Y47075D01*
X240165Y47161D01*
X240174Y47246D01*
X240188Y47330D01*
X240205Y47414D01*
X240226Y47497D01*
X240250Y47579D01*
X240278Y47659D01*
X240310Y47739D01*
X240346Y47817D01*
X240384Y47893D01*
X240427Y47967D01*
X240472Y48039D01*
X240521Y48110D01*
X240573Y48178D01*
X240627Y48243D01*
X240685Y48306D01*
X240746Y48367D01*
X240809Y48425D01*
X240874Y48479D01*
X240942Y48531D01*
X241013Y48580D01*
X241085Y48625D01*
X241159Y48668D01*
X241235Y48706D01*
X241313Y48742D01*
X241393Y48774D01*
X241473Y48802D01*
X241555Y48826D01*
X241638Y48847D01*
X241722Y48864D01*
X241806Y48878D01*
X241891Y48887D01*
X241977Y48893D01*
X242062Y48895D01*
X242147Y48893D01*
X242233Y48887D01*
X242318Y48878D01*
X242402Y48864D01*
X242486Y48847D01*
X242569Y48826D01*
X242651Y48802D01*
X242731Y48774D01*
X242811Y48742D01*
X242889Y48706D01*
X242965Y48668D01*
X243039Y48625D01*
X243111Y48580D01*
X243182Y48531D01*
X243250Y48479D01*
X243315Y48425D01*
X243378Y48367D01*
X243439Y48306D01*
X243497Y48243D01*
X243551Y48178D01*
X243603Y48110D01*
X243652Y48039D01*
X243697Y47967D01*
X243740Y47893D01*
X243778Y47817D01*
X243814Y47739D01*
X243846Y47659D01*
X243874Y47579D01*
X243898Y47497D01*
X243919Y47414D01*
X243936Y47330D01*
X243950Y47246D01*
X243959Y47161D01*
X243965Y47075D01*
X243967Y46990D01*
X243967Y45085D01*
X243967Y47371D02*
X247015Y48895D01*
X240157Y54426D02*
X240159Y54508D01*
X240165Y54589D01*
X240174Y54670D01*
X240188Y54751D01*
X240205Y54830D01*
X240226Y54909D01*
X240251Y54987D01*
X240280Y55063D01*
X240312Y55138D01*
X240348Y55212D01*
X240387Y55284D01*
X240429Y55353D01*
X240475Y55421D01*
X240524Y55486D01*
X240576Y55549D01*
X240631Y55609D01*
X240689Y55667D01*
X240749Y55722D01*
X240812Y55774D01*
X240877Y55823D01*
X240945Y55869D01*
X241015Y55911D01*
X241086Y55950D01*
X241160Y55986D01*
X241235Y56018D01*
X241311Y56047D01*
X241389Y56072D01*
X241468Y56093D01*
X241547Y56110D01*
X241628Y56124D01*
X241709Y56133D01*
X241790Y56139D01*
X241872Y56141D01*
X240157Y54426D02*
X240159Y54334D01*
X240165Y54242D01*
X240174Y54150D01*
X240188Y54058D01*
X240205Y53968D01*
X240226Y53878D01*
X240251Y53789D01*
X240280Y53701D01*
X240312Y53614D01*
X240348Y53529D01*
X240387Y53446D01*
X240430Y53364D01*
X240476Y53284D01*
X240526Y53206D01*
X240578Y53130D01*
X240634Y53057D01*
X240693Y52986D01*
X240755Y52917D01*
X240820Y52851D01*
X240887Y52788D01*
X240957Y52728D01*
X241029Y52670D01*
X241104Y52616D01*
X241181Y52565D01*
X241260Y52517D01*
X241341Y52473D01*
X241424Y52432D01*
X241508Y52394D01*
X241594Y52360D01*
X241681Y52330D01*
X243206Y55569D02*
X243147Y55628D01*
X243086Y55684D01*
X243023Y55737D01*
X242957Y55788D01*
X242889Y55835D01*
X242819Y55879D01*
X242747Y55920D01*
X242673Y55958D01*
X242598Y55992D01*
X242521Y56023D01*
X242443Y56050D01*
X242363Y56074D01*
X242283Y56095D01*
X242202Y56111D01*
X242120Y56124D01*
X242038Y56134D01*
X241955Y56139D01*
X241872Y56141D01*
X243205Y55569D02*
X247015Y52331D01*
X247015Y56141D01*
X187960Y76835D02*
X184912Y76835D01*
X184827Y76837D01*
X184741Y76843D01*
X184656Y76852D01*
X184572Y76866D01*
X184488Y76883D01*
X184405Y76904D01*
X184323Y76928D01*
X184243Y76956D01*
X184163Y76988D01*
X184085Y77024D01*
X184009Y77062D01*
X183935Y77105D01*
X183863Y77150D01*
X183792Y77199D01*
X183724Y77251D01*
X183659Y77305D01*
X183596Y77363D01*
X183535Y77424D01*
X183477Y77487D01*
X183423Y77552D01*
X183371Y77620D01*
X183322Y77691D01*
X183277Y77763D01*
X183234Y77837D01*
X183196Y77913D01*
X183160Y77991D01*
X183128Y78071D01*
X183100Y78151D01*
X183076Y78233D01*
X183055Y78316D01*
X183038Y78400D01*
X183024Y78484D01*
X183015Y78569D01*
X183009Y78655D01*
X183007Y78740D01*
X183009Y78825D01*
X183015Y78911D01*
X183024Y78996D01*
X183038Y79080D01*
X183055Y79164D01*
X183076Y79247D01*
X183100Y79329D01*
X183128Y79409D01*
X183160Y79489D01*
X183196Y79567D01*
X183234Y79643D01*
X183277Y79717D01*
X183322Y79789D01*
X183371Y79860D01*
X183423Y79928D01*
X183477Y79993D01*
X183535Y80056D01*
X183596Y80117D01*
X183659Y80175D01*
X183724Y80229D01*
X183792Y80281D01*
X183863Y80330D01*
X183935Y80375D01*
X184009Y80418D01*
X184085Y80456D01*
X184163Y80492D01*
X184243Y80524D01*
X184323Y80552D01*
X184405Y80576D01*
X184488Y80597D01*
X184572Y80614D01*
X184656Y80628D01*
X184741Y80637D01*
X184827Y80643D01*
X184912Y80645D01*
X187960Y80645D01*
X188045Y80643D01*
X188131Y80637D01*
X188216Y80628D01*
X188300Y80614D01*
X188384Y80597D01*
X188467Y80576D01*
X188549Y80552D01*
X188629Y80524D01*
X188709Y80492D01*
X188787Y80456D01*
X188863Y80418D01*
X188937Y80375D01*
X189009Y80330D01*
X189080Y80281D01*
X189148Y80229D01*
X189213Y80175D01*
X189276Y80117D01*
X189337Y80056D01*
X189395Y79993D01*
X189449Y79928D01*
X189501Y79860D01*
X189550Y79789D01*
X189595Y79717D01*
X189638Y79643D01*
X189676Y79567D01*
X189712Y79489D01*
X189744Y79409D01*
X189772Y79329D01*
X189796Y79247D01*
X189817Y79164D01*
X189834Y79080D01*
X189848Y78996D01*
X189857Y78911D01*
X189863Y78825D01*
X189865Y78740D01*
X189863Y78655D01*
X189857Y78569D01*
X189848Y78484D01*
X189834Y78400D01*
X189817Y78316D01*
X189796Y78233D01*
X189772Y78151D01*
X189744Y78071D01*
X189712Y77991D01*
X189676Y77913D01*
X189638Y77837D01*
X189595Y77763D01*
X189550Y77691D01*
X189501Y77620D01*
X189449Y77552D01*
X189395Y77487D01*
X189337Y77424D01*
X189276Y77363D01*
X189213Y77305D01*
X189148Y77251D01*
X189080Y77199D01*
X189009Y77150D01*
X188937Y77105D01*
X188863Y77062D01*
X188787Y77024D01*
X188709Y76988D01*
X188629Y76956D01*
X188549Y76928D01*
X188467Y76904D01*
X188384Y76883D01*
X188300Y76866D01*
X188216Y76852D01*
X188131Y76843D01*
X188045Y76837D01*
X187960Y76835D01*
X189865Y84554D02*
X183007Y84554D01*
X183007Y88364D02*
X187198Y84554D01*
X185674Y86078D02*
X189865Y88364D01*
X184531Y91465D02*
X183007Y93370D01*
X189865Y93370D01*
X189865Y91465D02*
X189865Y95275D01*
X154305Y20955D02*
X147447Y20955D01*
X147447Y22860D01*
X147449Y22945D01*
X147455Y23031D01*
X147464Y23116D01*
X147478Y23200D01*
X147495Y23284D01*
X147516Y23367D01*
X147540Y23449D01*
X147568Y23529D01*
X147600Y23609D01*
X147636Y23687D01*
X147674Y23763D01*
X147717Y23837D01*
X147762Y23909D01*
X147811Y23980D01*
X147863Y24048D01*
X147917Y24113D01*
X147975Y24176D01*
X148036Y24237D01*
X148099Y24295D01*
X148164Y24349D01*
X148232Y24401D01*
X148303Y24450D01*
X148375Y24495D01*
X148449Y24538D01*
X148525Y24576D01*
X148603Y24612D01*
X148683Y24644D01*
X148763Y24672D01*
X148845Y24696D01*
X148928Y24717D01*
X149012Y24734D01*
X149096Y24748D01*
X149181Y24757D01*
X149267Y24763D01*
X149352Y24765D01*
X149437Y24763D01*
X149523Y24757D01*
X149608Y24748D01*
X149692Y24734D01*
X149776Y24717D01*
X149859Y24696D01*
X149941Y24672D01*
X150021Y24644D01*
X150101Y24612D01*
X150179Y24576D01*
X150255Y24538D01*
X150329Y24495D01*
X150401Y24450D01*
X150472Y24401D01*
X150540Y24349D01*
X150605Y24295D01*
X150668Y24237D01*
X150729Y24176D01*
X150787Y24113D01*
X150841Y24048D01*
X150893Y23980D01*
X150942Y23909D01*
X150987Y23837D01*
X151030Y23763D01*
X151068Y23687D01*
X151104Y23609D01*
X151136Y23529D01*
X151164Y23449D01*
X151188Y23367D01*
X151209Y23284D01*
X151226Y23200D01*
X151240Y23116D01*
X151249Y23031D01*
X151255Y22945D01*
X151257Y22860D01*
X151257Y20955D01*
X151257Y23241D02*
X154305Y24765D01*
X148971Y28201D02*
X147447Y30106D01*
X154305Y30106D01*
X154305Y28201D02*
X154305Y32011D01*
X8961Y18415D02*
X8961Y11557D01*
X7056Y18415D02*
X10866Y18415D01*
X14149Y11557D02*
X17197Y11557D01*
X14149Y11557D02*
X14149Y18415D01*
X17197Y18415D01*
X16435Y15367D02*
X14149Y15367D01*
X20489Y18415D02*
X20489Y11557D01*
X23537Y11557D01*
X26829Y11557D02*
X29877Y11557D01*
X26829Y11557D02*
X26829Y18415D01*
X29877Y18415D01*
X29115Y15367D02*
X26829Y15367D01*
X33345Y18415D02*
X33345Y11557D01*
X32583Y11557D02*
X34107Y11557D01*
X34107Y18415D02*
X32583Y18415D01*
X37536Y18415D02*
X37536Y11557D01*
X41346Y11557D02*
X37536Y18415D01*
X41346Y18415D02*
X41346Y11557D01*
X45360Y11557D02*
X45360Y18415D01*
X48408Y18415D01*
X48408Y15367D02*
X45360Y15367D01*
X51435Y16510D02*
X51435Y13462D01*
X51435Y16510D02*
X51437Y16595D01*
X51443Y16681D01*
X51452Y16766D01*
X51466Y16850D01*
X51483Y16934D01*
X51504Y17017D01*
X51528Y17099D01*
X51556Y17179D01*
X51588Y17259D01*
X51624Y17337D01*
X51662Y17413D01*
X51705Y17487D01*
X51750Y17559D01*
X51799Y17630D01*
X51851Y17698D01*
X51905Y17763D01*
X51963Y17826D01*
X52024Y17887D01*
X52087Y17945D01*
X52152Y17999D01*
X52220Y18051D01*
X52291Y18100D01*
X52363Y18145D01*
X52437Y18188D01*
X52513Y18226D01*
X52591Y18262D01*
X52671Y18294D01*
X52751Y18322D01*
X52833Y18346D01*
X52916Y18367D01*
X53000Y18384D01*
X53084Y18398D01*
X53169Y18407D01*
X53255Y18413D01*
X53340Y18415D01*
X53425Y18413D01*
X53511Y18407D01*
X53596Y18398D01*
X53680Y18384D01*
X53764Y18367D01*
X53847Y18346D01*
X53929Y18322D01*
X54009Y18294D01*
X54089Y18262D01*
X54167Y18226D01*
X54243Y18188D01*
X54317Y18145D01*
X54389Y18100D01*
X54460Y18051D01*
X54528Y17999D01*
X54593Y17945D01*
X54656Y17887D01*
X54717Y17826D01*
X54775Y17763D01*
X54829Y17698D01*
X54881Y17630D01*
X54930Y17559D01*
X54975Y17487D01*
X55018Y17413D01*
X55056Y17337D01*
X55092Y17259D01*
X55124Y17179D01*
X55152Y17099D01*
X55176Y17017D01*
X55197Y16934D01*
X55214Y16850D01*
X55228Y16766D01*
X55237Y16681D01*
X55243Y16595D01*
X55245Y16510D01*
X55245Y13462D01*
X55243Y13377D01*
X55237Y13291D01*
X55228Y13206D01*
X55214Y13122D01*
X55197Y13038D01*
X55176Y12955D01*
X55152Y12873D01*
X55124Y12793D01*
X55092Y12713D01*
X55056Y12635D01*
X55018Y12559D01*
X54975Y12485D01*
X54930Y12413D01*
X54881Y12342D01*
X54829Y12274D01*
X54775Y12209D01*
X54717Y12146D01*
X54656Y12085D01*
X54593Y12027D01*
X54528Y11973D01*
X54460Y11921D01*
X54389Y11872D01*
X54317Y11827D01*
X54243Y11784D01*
X54167Y11746D01*
X54089Y11710D01*
X54009Y11678D01*
X53929Y11650D01*
X53847Y11626D01*
X53764Y11605D01*
X53680Y11588D01*
X53596Y11574D01*
X53511Y11565D01*
X53425Y11559D01*
X53340Y11557D01*
X53255Y11559D01*
X53169Y11565D01*
X53084Y11574D01*
X53000Y11588D01*
X52916Y11605D01*
X52833Y11626D01*
X52751Y11650D01*
X52671Y11678D01*
X52591Y11710D01*
X52513Y11746D01*
X52437Y11784D01*
X52363Y11827D01*
X52291Y11872D01*
X52220Y11921D01*
X52152Y11973D01*
X52087Y12027D01*
X52024Y12085D01*
X51963Y12146D01*
X51905Y12209D01*
X51851Y12274D01*
X51799Y12342D01*
X51750Y12413D01*
X51705Y12485D01*
X51662Y12559D01*
X51624Y12635D01*
X51588Y12713D01*
X51556Y12793D01*
X51528Y12873D01*
X51504Y12955D01*
X51483Y13038D01*
X51466Y13122D01*
X51452Y13206D01*
X51443Y13291D01*
X51437Y13377D01*
X51435Y13462D01*
X90719Y264287D02*
X91862Y264287D01*
X91862Y260477D01*
X89576Y260477D01*
X89499Y260479D01*
X89422Y260485D01*
X89345Y260495D01*
X89269Y260508D01*
X89194Y260526D01*
X89120Y260547D01*
X89047Y260572D01*
X88975Y260601D01*
X88905Y260633D01*
X88836Y260668D01*
X88770Y260708D01*
X88705Y260750D01*
X88643Y260796D01*
X88583Y260845D01*
X88526Y260896D01*
X88471Y260951D01*
X88420Y261008D01*
X88371Y261068D01*
X88325Y261130D01*
X88283Y261195D01*
X88243Y261261D01*
X88208Y261330D01*
X88176Y261400D01*
X88147Y261472D01*
X88122Y261545D01*
X88101Y261619D01*
X88083Y261694D01*
X88070Y261770D01*
X88060Y261847D01*
X88054Y261924D01*
X88052Y262001D01*
X88052Y265811D01*
X88054Y265888D01*
X88060Y265965D01*
X88070Y266042D01*
X88083Y266118D01*
X88101Y266193D01*
X88122Y266267D01*
X88147Y266340D01*
X88176Y266412D01*
X88208Y266482D01*
X88243Y266551D01*
X88283Y266617D01*
X88325Y266682D01*
X88371Y266744D01*
X88420Y266804D01*
X88471Y266861D01*
X88526Y266916D01*
X88583Y266967D01*
X88643Y267016D01*
X88705Y267062D01*
X88770Y267104D01*
X88836Y267144D01*
X88905Y267179D01*
X88975Y267211D01*
X89047Y267240D01*
X89120Y267265D01*
X89194Y267286D01*
X89269Y267304D01*
X89345Y267317D01*
X89422Y267327D01*
X89499Y267333D01*
X89576Y267335D01*
X91862Y267335D01*
X96015Y267335D02*
X96015Y260477D01*
X96015Y267335D02*
X97920Y267335D01*
X98005Y267333D01*
X98091Y267327D01*
X98176Y267318D01*
X98260Y267304D01*
X98344Y267287D01*
X98427Y267266D01*
X98509Y267242D01*
X98589Y267214D01*
X98669Y267182D01*
X98747Y267146D01*
X98823Y267108D01*
X98897Y267065D01*
X98969Y267020D01*
X99040Y266971D01*
X99108Y266919D01*
X99173Y266865D01*
X99236Y266807D01*
X99297Y266746D01*
X99355Y266683D01*
X99409Y266618D01*
X99461Y266550D01*
X99510Y266479D01*
X99555Y266407D01*
X99598Y266333D01*
X99636Y266257D01*
X99672Y266179D01*
X99704Y266099D01*
X99732Y266019D01*
X99756Y265937D01*
X99777Y265854D01*
X99794Y265770D01*
X99808Y265686D01*
X99817Y265601D01*
X99823Y265515D01*
X99825Y265430D01*
X99823Y265345D01*
X99817Y265259D01*
X99808Y265174D01*
X99794Y265090D01*
X99777Y265006D01*
X99756Y264923D01*
X99732Y264841D01*
X99704Y264761D01*
X99672Y264681D01*
X99636Y264603D01*
X99598Y264527D01*
X99555Y264453D01*
X99510Y264381D01*
X99461Y264310D01*
X99409Y264242D01*
X99355Y264177D01*
X99297Y264114D01*
X99236Y264053D01*
X99173Y263995D01*
X99108Y263941D01*
X99040Y263889D01*
X98969Y263840D01*
X98897Y263795D01*
X98823Y263752D01*
X98747Y263714D01*
X98669Y263678D01*
X98589Y263646D01*
X98509Y263618D01*
X98427Y263594D01*
X98344Y263573D01*
X98260Y263556D01*
X98176Y263542D01*
X98091Y263533D01*
X98005Y263527D01*
X97920Y263525D01*
X96015Y263525D01*
X103368Y260477D02*
X103368Y267335D01*
X102606Y260477D02*
X104130Y260477D01*
X104130Y267335D02*
X102606Y267335D01*
X107315Y265430D02*
X107315Y262382D01*
X107315Y265430D02*
X107317Y265515D01*
X107323Y265601D01*
X107332Y265686D01*
X107346Y265770D01*
X107363Y265854D01*
X107384Y265937D01*
X107408Y266019D01*
X107436Y266099D01*
X107468Y266179D01*
X107504Y266257D01*
X107542Y266333D01*
X107585Y266407D01*
X107630Y266479D01*
X107679Y266550D01*
X107731Y266618D01*
X107785Y266683D01*
X107843Y266746D01*
X107904Y266807D01*
X107967Y266865D01*
X108032Y266919D01*
X108100Y266971D01*
X108171Y267020D01*
X108243Y267065D01*
X108317Y267108D01*
X108393Y267146D01*
X108471Y267182D01*
X108551Y267214D01*
X108631Y267242D01*
X108713Y267266D01*
X108796Y267287D01*
X108880Y267304D01*
X108964Y267318D01*
X109049Y267327D01*
X109135Y267333D01*
X109220Y267335D01*
X109305Y267333D01*
X109391Y267327D01*
X109476Y267318D01*
X109560Y267304D01*
X109644Y267287D01*
X109727Y267266D01*
X109809Y267242D01*
X109889Y267214D01*
X109969Y267182D01*
X110047Y267146D01*
X110123Y267108D01*
X110197Y267065D01*
X110269Y267020D01*
X110340Y266971D01*
X110408Y266919D01*
X110473Y266865D01*
X110536Y266807D01*
X110597Y266746D01*
X110655Y266683D01*
X110709Y266618D01*
X110761Y266550D01*
X110810Y266479D01*
X110855Y266407D01*
X110898Y266333D01*
X110936Y266257D01*
X110972Y266179D01*
X111004Y266099D01*
X111032Y266019D01*
X111056Y265937D01*
X111077Y265854D01*
X111094Y265770D01*
X111108Y265686D01*
X111117Y265601D01*
X111123Y265515D01*
X111125Y265430D01*
X111125Y262382D01*
X111123Y262297D01*
X111117Y262211D01*
X111108Y262126D01*
X111094Y262042D01*
X111077Y261958D01*
X111056Y261875D01*
X111032Y261793D01*
X111004Y261713D01*
X110972Y261633D01*
X110936Y261555D01*
X110898Y261479D01*
X110855Y261405D01*
X110810Y261333D01*
X110761Y261262D01*
X110709Y261194D01*
X110655Y261129D01*
X110597Y261066D01*
X110536Y261005D01*
X110473Y260947D01*
X110408Y260893D01*
X110340Y260841D01*
X110269Y260792D01*
X110197Y260747D01*
X110123Y260704D01*
X110047Y260666D01*
X109969Y260630D01*
X109889Y260598D01*
X109809Y260570D01*
X109727Y260546D01*
X109644Y260525D01*
X109560Y260508D01*
X109476Y260494D01*
X109391Y260485D01*
X109305Y260479D01*
X109220Y260477D01*
X109135Y260479D01*
X109049Y260485D01*
X108964Y260494D01*
X108880Y260508D01*
X108796Y260525D01*
X108713Y260546D01*
X108631Y260570D01*
X108551Y260598D01*
X108471Y260630D01*
X108393Y260666D01*
X108317Y260704D01*
X108243Y260747D01*
X108171Y260792D01*
X108100Y260841D01*
X108032Y260893D01*
X107967Y260947D01*
X107904Y261005D01*
X107843Y261066D01*
X107785Y261129D01*
X107731Y261194D01*
X107679Y261262D01*
X107630Y261333D01*
X107585Y261405D01*
X107542Y261479D01*
X107504Y261555D01*
X107468Y261633D01*
X107436Y261713D01*
X107408Y261793D01*
X107384Y261875D01*
X107363Y261958D01*
X107346Y262042D01*
X107332Y262126D01*
X107323Y262211D01*
X107317Y262297D01*
X107315Y262382D01*
X333709Y265557D02*
X333709Y272415D01*
X335614Y272415D01*
X335699Y272413D01*
X335785Y272407D01*
X335870Y272398D01*
X335954Y272384D01*
X336038Y272367D01*
X336121Y272346D01*
X336203Y272322D01*
X336283Y272294D01*
X336363Y272262D01*
X336441Y272226D01*
X336517Y272188D01*
X336591Y272145D01*
X336663Y272100D01*
X336734Y272051D01*
X336802Y271999D01*
X336867Y271945D01*
X336930Y271887D01*
X336991Y271826D01*
X337049Y271763D01*
X337103Y271698D01*
X337155Y271630D01*
X337204Y271559D01*
X337249Y271487D01*
X337292Y271413D01*
X337330Y271337D01*
X337366Y271259D01*
X337398Y271179D01*
X337426Y271099D01*
X337450Y271017D01*
X337471Y270934D01*
X337488Y270850D01*
X337502Y270766D01*
X337511Y270681D01*
X337517Y270595D01*
X337519Y270510D01*
X337517Y270425D01*
X337511Y270339D01*
X337502Y270254D01*
X337488Y270170D01*
X337471Y270086D01*
X337450Y270003D01*
X337426Y269921D01*
X337398Y269841D01*
X337366Y269761D01*
X337330Y269683D01*
X337292Y269607D01*
X337249Y269533D01*
X337204Y269461D01*
X337155Y269390D01*
X337103Y269322D01*
X337049Y269257D01*
X336991Y269194D01*
X336930Y269133D01*
X336867Y269075D01*
X336802Y269021D01*
X336734Y268969D01*
X336663Y268920D01*
X336591Y268875D01*
X336517Y268832D01*
X336441Y268794D01*
X336363Y268758D01*
X336283Y268726D01*
X336203Y268698D01*
X336121Y268674D01*
X336038Y268653D01*
X335954Y268636D01*
X335870Y268622D01*
X335785Y268613D01*
X335699Y268607D01*
X335614Y268605D01*
X333709Y268605D01*
X340621Y267462D02*
X340621Y270510D01*
X340623Y270595D01*
X340629Y270681D01*
X340638Y270766D01*
X340652Y270850D01*
X340669Y270934D01*
X340690Y271017D01*
X340714Y271099D01*
X340742Y271179D01*
X340774Y271259D01*
X340810Y271337D01*
X340848Y271413D01*
X340891Y271487D01*
X340936Y271559D01*
X340985Y271630D01*
X341037Y271698D01*
X341091Y271763D01*
X341149Y271826D01*
X341210Y271887D01*
X341273Y271945D01*
X341338Y271999D01*
X341406Y272051D01*
X341477Y272100D01*
X341549Y272145D01*
X341623Y272188D01*
X341699Y272226D01*
X341777Y272262D01*
X341857Y272294D01*
X341937Y272322D01*
X342019Y272346D01*
X342102Y272367D01*
X342186Y272384D01*
X342270Y272398D01*
X342355Y272407D01*
X342441Y272413D01*
X342526Y272415D01*
X342611Y272413D01*
X342697Y272407D01*
X342782Y272398D01*
X342866Y272384D01*
X342950Y272367D01*
X343033Y272346D01*
X343115Y272322D01*
X343195Y272294D01*
X343275Y272262D01*
X343353Y272226D01*
X343429Y272188D01*
X343503Y272145D01*
X343575Y272100D01*
X343646Y272051D01*
X343714Y271999D01*
X343779Y271945D01*
X343842Y271887D01*
X343903Y271826D01*
X343961Y271763D01*
X344015Y271698D01*
X344067Y271630D01*
X344116Y271559D01*
X344161Y271487D01*
X344204Y271413D01*
X344242Y271337D01*
X344278Y271259D01*
X344310Y271179D01*
X344338Y271099D01*
X344362Y271017D01*
X344383Y270934D01*
X344400Y270850D01*
X344414Y270766D01*
X344423Y270681D01*
X344429Y270595D01*
X344431Y270510D01*
X344431Y267462D01*
X344429Y267377D01*
X344423Y267291D01*
X344414Y267206D01*
X344400Y267122D01*
X344383Y267038D01*
X344362Y266955D01*
X344338Y266873D01*
X344310Y266793D01*
X344278Y266713D01*
X344242Y266635D01*
X344204Y266559D01*
X344161Y266485D01*
X344116Y266413D01*
X344067Y266342D01*
X344015Y266274D01*
X343961Y266209D01*
X343903Y266146D01*
X343842Y266085D01*
X343779Y266027D01*
X343714Y265973D01*
X343646Y265921D01*
X343575Y265872D01*
X343503Y265827D01*
X343429Y265784D01*
X343353Y265746D01*
X343275Y265710D01*
X343195Y265678D01*
X343115Y265650D01*
X343033Y265626D01*
X342950Y265605D01*
X342866Y265588D01*
X342782Y265574D01*
X342697Y265565D01*
X342611Y265559D01*
X342526Y265557D01*
X342441Y265559D01*
X342355Y265565D01*
X342270Y265574D01*
X342186Y265588D01*
X342102Y265605D01*
X342019Y265626D01*
X341937Y265650D01*
X341857Y265678D01*
X341777Y265710D01*
X341699Y265746D01*
X341623Y265784D01*
X341549Y265827D01*
X341477Y265872D01*
X341406Y265921D01*
X341338Y265973D01*
X341273Y266027D01*
X341210Y266085D01*
X341149Y266146D01*
X341091Y266209D01*
X341037Y266274D01*
X340985Y266342D01*
X340936Y266413D01*
X340891Y266485D01*
X340848Y266559D01*
X340810Y266635D01*
X340774Y266713D01*
X340742Y266793D01*
X340714Y266873D01*
X340690Y266955D01*
X340669Y267038D01*
X340652Y267122D01*
X340638Y267206D01*
X340629Y267291D01*
X340623Y267377D01*
X340621Y267462D01*
X347768Y272415D02*
X349292Y265557D01*
X350816Y270129D01*
X352340Y265557D01*
X353864Y272415D01*
X357467Y265557D02*
X360515Y265557D01*
X357467Y265557D02*
X357467Y272415D01*
X360515Y272415D01*
X359753Y269367D02*
X357467Y269367D01*
X363855Y272415D02*
X363855Y265557D01*
X363855Y272415D02*
X365760Y272415D01*
X365845Y272413D01*
X365931Y272407D01*
X366016Y272398D01*
X366100Y272384D01*
X366184Y272367D01*
X366267Y272346D01*
X366349Y272322D01*
X366429Y272294D01*
X366509Y272262D01*
X366587Y272226D01*
X366663Y272188D01*
X366737Y272145D01*
X366809Y272100D01*
X366880Y272051D01*
X366948Y271999D01*
X367013Y271945D01*
X367076Y271887D01*
X367137Y271826D01*
X367195Y271763D01*
X367249Y271698D01*
X367301Y271630D01*
X367350Y271559D01*
X367395Y271487D01*
X367438Y271413D01*
X367476Y271337D01*
X367512Y271259D01*
X367544Y271179D01*
X367572Y271099D01*
X367596Y271017D01*
X367617Y270934D01*
X367634Y270850D01*
X367648Y270766D01*
X367657Y270681D01*
X367663Y270595D01*
X367665Y270510D01*
X367663Y270425D01*
X367657Y270339D01*
X367648Y270254D01*
X367634Y270170D01*
X367617Y270086D01*
X367596Y270003D01*
X367572Y269921D01*
X367544Y269841D01*
X367512Y269761D01*
X367476Y269683D01*
X367438Y269607D01*
X367395Y269533D01*
X367350Y269461D01*
X367301Y269390D01*
X367249Y269322D01*
X367195Y269257D01*
X367137Y269194D01*
X367076Y269133D01*
X367013Y269075D01*
X366948Y269021D01*
X366880Y268969D01*
X366809Y268920D01*
X366737Y268875D01*
X366663Y268832D01*
X366587Y268794D01*
X366509Y268758D01*
X366429Y268726D01*
X366349Y268698D01*
X366267Y268674D01*
X366184Y268653D01*
X366100Y268636D01*
X366016Y268622D01*
X365931Y268613D01*
X365845Y268607D01*
X365760Y268605D01*
X363855Y268605D01*
X366141Y268605D02*
X367665Y265557D01*
X390606Y264922D02*
X390606Y267970D01*
X390608Y268055D01*
X390614Y268141D01*
X390623Y268226D01*
X390637Y268310D01*
X390654Y268394D01*
X390675Y268477D01*
X390699Y268559D01*
X390727Y268639D01*
X390759Y268719D01*
X390795Y268797D01*
X390833Y268873D01*
X390876Y268947D01*
X390921Y269019D01*
X390970Y269090D01*
X391022Y269158D01*
X391076Y269223D01*
X391134Y269286D01*
X391195Y269347D01*
X391258Y269405D01*
X391323Y269459D01*
X391391Y269511D01*
X391462Y269560D01*
X391534Y269605D01*
X391608Y269648D01*
X391684Y269686D01*
X391762Y269722D01*
X391842Y269754D01*
X391922Y269782D01*
X392004Y269806D01*
X392087Y269827D01*
X392171Y269844D01*
X392255Y269858D01*
X392340Y269867D01*
X392426Y269873D01*
X392511Y269875D01*
X392596Y269873D01*
X392682Y269867D01*
X392767Y269858D01*
X392851Y269844D01*
X392935Y269827D01*
X393018Y269806D01*
X393100Y269782D01*
X393180Y269754D01*
X393260Y269722D01*
X393338Y269686D01*
X393414Y269648D01*
X393488Y269605D01*
X393560Y269560D01*
X393631Y269511D01*
X393699Y269459D01*
X393764Y269405D01*
X393827Y269347D01*
X393888Y269286D01*
X393946Y269223D01*
X394000Y269158D01*
X394052Y269090D01*
X394101Y269019D01*
X394146Y268947D01*
X394189Y268873D01*
X394227Y268797D01*
X394263Y268719D01*
X394295Y268639D01*
X394323Y268559D01*
X394347Y268477D01*
X394368Y268394D01*
X394385Y268310D01*
X394399Y268226D01*
X394408Y268141D01*
X394414Y268055D01*
X394416Y267970D01*
X394416Y264922D01*
X394414Y264837D01*
X394408Y264751D01*
X394399Y264666D01*
X394385Y264582D01*
X394368Y264498D01*
X394347Y264415D01*
X394323Y264333D01*
X394295Y264253D01*
X394263Y264173D01*
X394227Y264095D01*
X394189Y264019D01*
X394146Y263945D01*
X394101Y263873D01*
X394052Y263802D01*
X394000Y263734D01*
X393946Y263669D01*
X393888Y263606D01*
X393827Y263545D01*
X393764Y263487D01*
X393699Y263433D01*
X393631Y263381D01*
X393560Y263332D01*
X393488Y263287D01*
X393414Y263244D01*
X393338Y263206D01*
X393260Y263170D01*
X393180Y263138D01*
X393100Y263110D01*
X393018Y263086D01*
X392935Y263065D01*
X392851Y263048D01*
X392767Y263034D01*
X392682Y263025D01*
X392596Y263019D01*
X392511Y263017D01*
X392426Y263019D01*
X392340Y263025D01*
X392255Y263034D01*
X392171Y263048D01*
X392087Y263065D01*
X392004Y263086D01*
X391922Y263110D01*
X391842Y263138D01*
X391762Y263170D01*
X391684Y263206D01*
X391608Y263244D01*
X391534Y263287D01*
X391462Y263332D01*
X391391Y263381D01*
X391323Y263433D01*
X391258Y263487D01*
X391195Y263545D01*
X391134Y263606D01*
X391076Y263669D01*
X391022Y263734D01*
X390970Y263802D01*
X390921Y263873D01*
X390876Y263945D01*
X390833Y264019D01*
X390795Y264095D01*
X390759Y264173D01*
X390727Y264253D01*
X390699Y264333D01*
X390675Y264415D01*
X390654Y264498D01*
X390637Y264582D01*
X390623Y264666D01*
X390614Y264751D01*
X390608Y264837D01*
X390606Y264922D01*
X398187Y263017D02*
X398187Y269875D01*
X398187Y263017D02*
X401235Y263017D01*
X404527Y263017D02*
X407575Y263017D01*
X404527Y263017D02*
X404527Y269875D01*
X407575Y269875D01*
X406813Y266827D02*
X404527Y266827D01*
X410845Y269875D02*
X410845Y263017D01*
X410845Y269875D02*
X412750Y269875D01*
X412835Y269873D01*
X412921Y269867D01*
X413006Y269858D01*
X413090Y269844D01*
X413174Y269827D01*
X413257Y269806D01*
X413339Y269782D01*
X413419Y269754D01*
X413499Y269722D01*
X413577Y269686D01*
X413653Y269648D01*
X413727Y269605D01*
X413799Y269560D01*
X413870Y269511D01*
X413938Y269459D01*
X414003Y269405D01*
X414066Y269347D01*
X414127Y269286D01*
X414185Y269223D01*
X414239Y269158D01*
X414291Y269090D01*
X414340Y269019D01*
X414385Y268947D01*
X414428Y268873D01*
X414466Y268797D01*
X414502Y268719D01*
X414534Y268639D01*
X414562Y268559D01*
X414586Y268477D01*
X414607Y268394D01*
X414624Y268310D01*
X414638Y268226D01*
X414647Y268141D01*
X414653Y268055D01*
X414655Y267970D01*
X414655Y264922D01*
X414653Y264837D01*
X414647Y264751D01*
X414638Y264666D01*
X414624Y264582D01*
X414607Y264498D01*
X414586Y264415D01*
X414562Y264333D01*
X414534Y264253D01*
X414502Y264173D01*
X414466Y264095D01*
X414428Y264019D01*
X414385Y263945D01*
X414340Y263873D01*
X414291Y263802D01*
X414239Y263734D01*
X414185Y263669D01*
X414127Y263606D01*
X414066Y263545D01*
X414003Y263487D01*
X413938Y263433D01*
X413870Y263381D01*
X413799Y263332D01*
X413727Y263287D01*
X413653Y263244D01*
X413577Y263206D01*
X413499Y263170D01*
X413419Y263138D01*
X413339Y263110D01*
X413257Y263086D01*
X413174Y263065D01*
X413090Y263048D01*
X413006Y263034D01*
X412921Y263025D01*
X412835Y263019D01*
X412750Y263017D01*
X410845Y263017D01*
X215265Y89535D02*
X208407Y89535D01*
X208407Y91440D01*
X208409Y91525D01*
X208415Y91611D01*
X208424Y91696D01*
X208438Y91780D01*
X208455Y91864D01*
X208476Y91947D01*
X208500Y92029D01*
X208528Y92109D01*
X208560Y92189D01*
X208596Y92267D01*
X208634Y92343D01*
X208677Y92417D01*
X208722Y92489D01*
X208771Y92560D01*
X208823Y92628D01*
X208877Y92693D01*
X208935Y92756D01*
X208996Y92817D01*
X209059Y92875D01*
X209124Y92929D01*
X209192Y92981D01*
X209263Y93030D01*
X209335Y93075D01*
X209409Y93118D01*
X209485Y93156D01*
X209563Y93192D01*
X209643Y93224D01*
X209723Y93252D01*
X209805Y93276D01*
X209888Y93297D01*
X209972Y93314D01*
X210056Y93328D01*
X210141Y93337D01*
X210227Y93343D01*
X210312Y93345D01*
X210397Y93343D01*
X210483Y93337D01*
X210568Y93328D01*
X210652Y93314D01*
X210736Y93297D01*
X210819Y93276D01*
X210901Y93252D01*
X210981Y93224D01*
X211061Y93192D01*
X211139Y93156D01*
X211215Y93118D01*
X211289Y93075D01*
X211361Y93030D01*
X211432Y92981D01*
X211500Y92929D01*
X211565Y92875D01*
X211628Y92817D01*
X211689Y92756D01*
X211747Y92693D01*
X211801Y92628D01*
X211853Y92560D01*
X211902Y92489D01*
X211947Y92417D01*
X211990Y92343D01*
X212028Y92267D01*
X212064Y92189D01*
X212096Y92109D01*
X212124Y92029D01*
X212148Y91947D01*
X212169Y91864D01*
X212186Y91780D01*
X212200Y91696D01*
X212209Y91611D01*
X212215Y91525D01*
X212217Y91440D01*
X212217Y89535D01*
X212217Y91821D02*
X215265Y93345D01*
X215265Y96781D02*
X215265Y98686D01*
X215263Y98771D01*
X215257Y98857D01*
X215248Y98942D01*
X215234Y99026D01*
X215217Y99110D01*
X215196Y99193D01*
X215172Y99275D01*
X215144Y99355D01*
X215112Y99435D01*
X215076Y99513D01*
X215038Y99589D01*
X214995Y99663D01*
X214950Y99735D01*
X214901Y99806D01*
X214849Y99874D01*
X214795Y99939D01*
X214737Y100002D01*
X214676Y100063D01*
X214613Y100121D01*
X214548Y100175D01*
X214480Y100227D01*
X214409Y100276D01*
X214337Y100321D01*
X214263Y100364D01*
X214187Y100402D01*
X214109Y100438D01*
X214029Y100470D01*
X213949Y100498D01*
X213867Y100522D01*
X213784Y100543D01*
X213700Y100560D01*
X213616Y100574D01*
X213531Y100583D01*
X213445Y100589D01*
X213360Y100591D01*
X213275Y100589D01*
X213189Y100583D01*
X213104Y100574D01*
X213020Y100560D01*
X212936Y100543D01*
X212853Y100522D01*
X212771Y100498D01*
X212691Y100470D01*
X212611Y100438D01*
X212533Y100402D01*
X212457Y100364D01*
X212383Y100321D01*
X212311Y100276D01*
X212240Y100227D01*
X212172Y100175D01*
X212107Y100121D01*
X212044Y100063D01*
X211983Y100002D01*
X211925Y99939D01*
X211871Y99874D01*
X211819Y99806D01*
X211770Y99735D01*
X211725Y99663D01*
X211682Y99589D01*
X211644Y99513D01*
X211608Y99435D01*
X211576Y99355D01*
X211548Y99275D01*
X211524Y99193D01*
X211503Y99110D01*
X211486Y99026D01*
X211472Y98942D01*
X211463Y98857D01*
X211457Y98771D01*
X211455Y98686D01*
X208407Y99067D02*
X208407Y96781D01*
X208407Y99067D02*
X208409Y99144D01*
X208415Y99221D01*
X208425Y99298D01*
X208438Y99374D01*
X208456Y99449D01*
X208477Y99523D01*
X208502Y99596D01*
X208531Y99668D01*
X208563Y99738D01*
X208598Y99807D01*
X208638Y99873D01*
X208680Y99938D01*
X208726Y100000D01*
X208775Y100060D01*
X208826Y100117D01*
X208881Y100172D01*
X208938Y100223D01*
X208998Y100272D01*
X209060Y100318D01*
X209125Y100360D01*
X209191Y100400D01*
X209260Y100435D01*
X209330Y100467D01*
X209402Y100496D01*
X209475Y100521D01*
X209549Y100542D01*
X209624Y100560D01*
X209700Y100573D01*
X209777Y100583D01*
X209854Y100589D01*
X209931Y100591D01*
X210008Y100589D01*
X210085Y100583D01*
X210162Y100573D01*
X210238Y100560D01*
X210313Y100542D01*
X210387Y100521D01*
X210460Y100496D01*
X210532Y100467D01*
X210602Y100435D01*
X210671Y100400D01*
X210737Y100360D01*
X210802Y100318D01*
X210864Y100272D01*
X210924Y100223D01*
X210981Y100172D01*
X211036Y100117D01*
X211087Y100060D01*
X211136Y100000D01*
X211182Y99938D01*
X211224Y99873D01*
X211264Y99807D01*
X211299Y99738D01*
X211331Y99668D01*
X211360Y99596D01*
X211385Y99523D01*
X211406Y99449D01*
X211424Y99374D01*
X211437Y99298D01*
X211447Y99221D01*
X211453Y99144D01*
X211455Y99067D01*
X211455Y97543D01*
X268097Y94615D02*
X274955Y94615D01*
X268097Y94615D02*
X268097Y96520D01*
X268099Y96605D01*
X268105Y96691D01*
X268114Y96776D01*
X268128Y96860D01*
X268145Y96944D01*
X268166Y97027D01*
X268190Y97109D01*
X268218Y97189D01*
X268250Y97269D01*
X268286Y97347D01*
X268324Y97423D01*
X268367Y97497D01*
X268412Y97569D01*
X268461Y97640D01*
X268513Y97708D01*
X268567Y97773D01*
X268625Y97836D01*
X268686Y97897D01*
X268749Y97955D01*
X268814Y98009D01*
X268882Y98061D01*
X268953Y98110D01*
X269025Y98155D01*
X269099Y98198D01*
X269175Y98236D01*
X269253Y98272D01*
X269333Y98304D01*
X269413Y98332D01*
X269495Y98356D01*
X269578Y98377D01*
X269662Y98394D01*
X269746Y98408D01*
X269831Y98417D01*
X269917Y98423D01*
X270002Y98425D01*
X270087Y98423D01*
X270173Y98417D01*
X270258Y98408D01*
X270342Y98394D01*
X270426Y98377D01*
X270509Y98356D01*
X270591Y98332D01*
X270671Y98304D01*
X270751Y98272D01*
X270829Y98236D01*
X270905Y98198D01*
X270979Y98155D01*
X271051Y98110D01*
X271122Y98061D01*
X271190Y98009D01*
X271255Y97955D01*
X271318Y97897D01*
X271379Y97836D01*
X271437Y97773D01*
X271491Y97708D01*
X271543Y97640D01*
X271592Y97569D01*
X271637Y97497D01*
X271680Y97423D01*
X271718Y97347D01*
X271754Y97269D01*
X271786Y97189D01*
X271814Y97109D01*
X271838Y97027D01*
X271859Y96944D01*
X271876Y96860D01*
X271890Y96776D01*
X271899Y96691D01*
X271905Y96605D01*
X271907Y96520D01*
X271907Y94615D01*
X271907Y96901D02*
X274955Y98425D01*
X273431Y101861D02*
X268097Y103385D01*
X273431Y101861D02*
X273431Y105671D01*
X271907Y104528D02*
X274955Y104528D01*
X338201Y98425D02*
X338278Y98427D01*
X338355Y98433D01*
X338432Y98443D01*
X338508Y98456D01*
X338583Y98474D01*
X338657Y98495D01*
X338730Y98520D01*
X338802Y98549D01*
X338872Y98581D01*
X338941Y98616D01*
X339007Y98656D01*
X339072Y98698D01*
X339134Y98744D01*
X339194Y98793D01*
X339251Y98844D01*
X339306Y98899D01*
X339357Y98956D01*
X339406Y99016D01*
X339452Y99078D01*
X339494Y99143D01*
X339534Y99209D01*
X339569Y99278D01*
X339601Y99348D01*
X339630Y99420D01*
X339655Y99493D01*
X339676Y99567D01*
X339694Y99642D01*
X339707Y99718D01*
X339717Y99795D01*
X339723Y99872D01*
X339725Y99949D01*
X338201Y98425D02*
X338091Y98427D01*
X337980Y98433D01*
X337870Y98442D01*
X337760Y98455D01*
X337651Y98472D01*
X337543Y98493D01*
X337435Y98517D01*
X337328Y98546D01*
X337222Y98577D01*
X337118Y98613D01*
X337014Y98652D01*
X336912Y98694D01*
X336812Y98740D01*
X336713Y98790D01*
X336616Y98842D01*
X336520Y98899D01*
X336427Y98958D01*
X336336Y99020D01*
X336247Y99086D01*
X336160Y99154D01*
X336076Y99226D01*
X335994Y99300D01*
X335915Y99377D01*
X336106Y103759D02*
X336108Y103836D01*
X336114Y103913D01*
X336124Y103990D01*
X336137Y104066D01*
X336155Y104141D01*
X336176Y104215D01*
X336201Y104288D01*
X336230Y104360D01*
X336262Y104430D01*
X336297Y104499D01*
X336337Y104565D01*
X336379Y104630D01*
X336425Y104692D01*
X336474Y104752D01*
X336525Y104809D01*
X336580Y104864D01*
X336637Y104915D01*
X336697Y104964D01*
X336759Y105010D01*
X336824Y105052D01*
X336890Y105092D01*
X336959Y105127D01*
X337029Y105159D01*
X337101Y105188D01*
X337174Y105213D01*
X337248Y105234D01*
X337323Y105252D01*
X337399Y105265D01*
X337476Y105275D01*
X337553Y105281D01*
X337630Y105283D01*
X337630Y105284D02*
X337732Y105282D01*
X337834Y105277D01*
X337936Y105268D01*
X338037Y105255D01*
X338138Y105238D01*
X338238Y105219D01*
X338338Y105195D01*
X338436Y105168D01*
X338534Y105137D01*
X338630Y105103D01*
X338725Y105066D01*
X338819Y105025D01*
X338911Y104981D01*
X339001Y104933D01*
X339090Y104883D01*
X339177Y104829D01*
X339262Y104772D01*
X339345Y104712D01*
X336867Y102425D02*
X336802Y102466D01*
X336739Y102509D01*
X336679Y102556D01*
X336620Y102606D01*
X336565Y102658D01*
X336512Y102713D01*
X336461Y102771D01*
X336414Y102831D01*
X336370Y102894D01*
X336328Y102958D01*
X336290Y103024D01*
X336256Y103093D01*
X336225Y103163D01*
X336197Y103234D01*
X336173Y103306D01*
X336152Y103380D01*
X336135Y103455D01*
X336122Y103530D01*
X336113Y103606D01*
X336107Y103682D01*
X336105Y103759D01*
X338963Y101283D02*
X339028Y101242D01*
X339091Y101199D01*
X339151Y101152D01*
X339210Y101102D01*
X339265Y101050D01*
X339318Y100995D01*
X339369Y100937D01*
X339416Y100877D01*
X339460Y100814D01*
X339502Y100750D01*
X339540Y100684D01*
X339574Y100615D01*
X339605Y100545D01*
X339633Y100474D01*
X339657Y100402D01*
X339678Y100328D01*
X339695Y100253D01*
X339708Y100178D01*
X339717Y100102D01*
X339723Y100026D01*
X339725Y99949D01*
X338963Y101283D02*
X336868Y102426D01*
X342986Y103759D02*
X344891Y105283D01*
X344891Y98425D01*
X342986Y98425D02*
X346796Y98425D01*
X267335Y188245D02*
X267335Y189939D01*
X267335Y188245D02*
X267333Y188164D01*
X267327Y188084D01*
X267318Y188004D01*
X267304Y187925D01*
X267287Y187846D01*
X267266Y187768D01*
X267242Y187691D01*
X267214Y187616D01*
X267182Y187542D01*
X267147Y187469D01*
X267108Y187399D01*
X267066Y187330D01*
X267021Y187263D01*
X266973Y187198D01*
X266921Y187136D01*
X266867Y187077D01*
X266810Y187020D01*
X266751Y186966D01*
X266689Y186914D01*
X266624Y186866D01*
X266557Y186821D01*
X266489Y186779D01*
X266418Y186740D01*
X266345Y186705D01*
X266271Y186673D01*
X266196Y186645D01*
X266119Y186621D01*
X266041Y186600D01*
X265962Y186583D01*
X265883Y186569D01*
X265803Y186560D01*
X265723Y186554D01*
X265642Y186552D01*
X261408Y186552D01*
X261327Y186554D01*
X261247Y186560D01*
X261167Y186569D01*
X261088Y186583D01*
X261009Y186600D01*
X260931Y186621D01*
X260854Y186645D01*
X260779Y186673D01*
X260705Y186705D01*
X260632Y186740D01*
X260562Y186779D01*
X260493Y186821D01*
X260426Y186866D01*
X260361Y186914D01*
X260299Y186965D01*
X260240Y187020D01*
X260183Y187077D01*
X260129Y187136D01*
X260077Y187198D01*
X260029Y187263D01*
X259984Y187330D01*
X259942Y187398D01*
X259903Y187469D01*
X259868Y187542D01*
X259836Y187616D01*
X259808Y187691D01*
X259784Y187768D01*
X259763Y187846D01*
X259746Y187925D01*
X259732Y188004D01*
X259723Y188084D01*
X259717Y188164D01*
X259715Y188245D01*
X259715Y189939D01*
X259715Y195580D02*
X259717Y195665D01*
X259723Y195751D01*
X259732Y195836D01*
X259746Y195920D01*
X259763Y196004D01*
X259784Y196087D01*
X259808Y196169D01*
X259836Y196249D01*
X259868Y196329D01*
X259904Y196407D01*
X259942Y196483D01*
X259985Y196557D01*
X260030Y196629D01*
X260079Y196700D01*
X260131Y196768D01*
X260185Y196833D01*
X260243Y196896D01*
X260304Y196957D01*
X260367Y197015D01*
X260432Y197069D01*
X260500Y197121D01*
X260571Y197170D01*
X260643Y197215D01*
X260717Y197258D01*
X260793Y197296D01*
X260871Y197332D01*
X260951Y197364D01*
X261031Y197392D01*
X261113Y197416D01*
X261196Y197437D01*
X261280Y197454D01*
X261364Y197468D01*
X261449Y197477D01*
X261535Y197483D01*
X261620Y197485D01*
X259715Y195580D02*
X259717Y195484D01*
X259723Y195388D01*
X259732Y195292D01*
X259745Y195197D01*
X259762Y195102D01*
X259783Y195008D01*
X259807Y194915D01*
X259835Y194823D01*
X259866Y194732D01*
X259902Y194643D01*
X259940Y194555D01*
X259982Y194468D01*
X260027Y194383D01*
X260076Y194301D01*
X260128Y194220D01*
X260183Y194141D01*
X260241Y194064D01*
X260302Y193990D01*
X260366Y193918D01*
X260433Y193849D01*
X260502Y193782D01*
X260574Y193718D01*
X260648Y193657D01*
X260725Y193599D01*
X260804Y193544D01*
X260885Y193493D01*
X260968Y193444D01*
X261053Y193399D01*
X261140Y193357D01*
X261228Y193318D01*
X261317Y193283D01*
X261408Y193252D01*
X263102Y196850D02*
X263040Y196912D01*
X262976Y196971D01*
X262910Y197027D01*
X262841Y197081D01*
X262770Y197131D01*
X262696Y197179D01*
X262621Y197223D01*
X262544Y197264D01*
X262466Y197302D01*
X262386Y197336D01*
X262304Y197367D01*
X262221Y197395D01*
X262138Y197418D01*
X262053Y197439D01*
X261967Y197455D01*
X261881Y197468D01*
X261794Y197478D01*
X261707Y197483D01*
X261620Y197485D01*
X263102Y196850D02*
X267335Y193252D01*
X267335Y197485D01*
D13*
X272030Y205740D02*
X272030Y170180D01*
X272030Y205740D02*
X337570Y205740D01*
X337570Y170180D01*
X272030Y170180D01*
D12*
X270510Y262890D02*
X283210Y262890D01*
X289560Y256540D01*
X289560Y243840D01*
X283210Y237490D01*
X289560Y256540D02*
X295910Y262890D01*
X308610Y262890D01*
X314960Y256540D01*
X314960Y243840D01*
X308610Y237490D01*
X295910Y237490D01*
X289560Y243840D01*
X264160Y243840D02*
X264160Y256540D01*
X270510Y262890D01*
X264160Y243840D02*
X270510Y237490D01*
X283210Y237490D01*
X314960Y256540D02*
X321310Y262890D01*
X334010Y262890D01*
X340360Y256540D01*
X340360Y243840D01*
X334010Y237490D01*
X321310Y237490D01*
X314960Y243840D01*
X203200Y105410D02*
X152400Y105410D01*
X152400Y46990D02*
X203200Y46990D01*
X203200Y105410D01*
X152400Y105410D02*
X152400Y86360D01*
X152400Y66040D02*
X152400Y46990D01*
X152400Y66040D02*
X152647Y66043D01*
X152895Y66052D01*
X153142Y66067D01*
X153388Y66088D01*
X153634Y66115D01*
X153879Y66148D01*
X154124Y66187D01*
X154367Y66232D01*
X154609Y66283D01*
X154850Y66340D01*
X155089Y66402D01*
X155327Y66471D01*
X155563Y66545D01*
X155797Y66625D01*
X156029Y66710D01*
X156259Y66802D01*
X156487Y66898D01*
X156712Y67001D01*
X156935Y67108D01*
X157155Y67222D01*
X157372Y67340D01*
X157587Y67464D01*
X157798Y67593D01*
X158006Y67727D01*
X158211Y67866D01*
X158412Y68010D01*
X158610Y68158D01*
X158804Y68312D01*
X158994Y68470D01*
X159180Y68633D01*
X159362Y68800D01*
X159540Y68972D01*
X159714Y69148D01*
X159884Y69328D01*
X160049Y69513D01*
X160209Y69701D01*
X160365Y69893D01*
X160517Y70089D01*
X160663Y70288D01*
X160805Y70491D01*
X160941Y70698D01*
X161073Y70907D01*
X161199Y71120D01*
X161320Y71336D01*
X161436Y71554D01*
X161546Y71776D01*
X161651Y72000D01*
X161751Y72226D01*
X161845Y72455D01*
X161933Y72686D01*
X162016Y72920D01*
X162093Y73155D01*
X162164Y73392D01*
X162230Y73630D01*
X162289Y73870D01*
X162343Y74112D01*
X162391Y74355D01*
X162433Y74598D01*
X162469Y74843D01*
X162499Y75089D01*
X162523Y75335D01*
X162541Y75582D01*
X162553Y75829D01*
X162559Y76076D01*
X162559Y76324D01*
X162553Y76571D01*
X162541Y76818D01*
X162523Y77065D01*
X162499Y77311D01*
X162469Y77557D01*
X162433Y77802D01*
X162391Y78045D01*
X162343Y78288D01*
X162289Y78530D01*
X162230Y78770D01*
X162164Y79008D01*
X162093Y79245D01*
X162016Y79480D01*
X161933Y79714D01*
X161845Y79945D01*
X161751Y80174D01*
X161651Y80400D01*
X161546Y80624D01*
X161436Y80846D01*
X161320Y81064D01*
X161199Y81280D01*
X161073Y81493D01*
X160941Y81702D01*
X160805Y81909D01*
X160663Y82112D01*
X160517Y82311D01*
X160365Y82507D01*
X160209Y82699D01*
X160049Y82887D01*
X159884Y83072D01*
X159714Y83252D01*
X159540Y83428D01*
X159362Y83600D01*
X159180Y83767D01*
X158994Y83930D01*
X158804Y84088D01*
X158610Y84242D01*
X158412Y84390D01*
X158211Y84534D01*
X158006Y84673D01*
X157798Y84807D01*
X157587Y84936D01*
X157372Y85060D01*
X157155Y85178D01*
X156935Y85292D01*
X156712Y85399D01*
X156487Y85502D01*
X156259Y85598D01*
X156029Y85690D01*
X155797Y85775D01*
X155563Y85855D01*
X155327Y85929D01*
X155089Y85998D01*
X154850Y86060D01*
X154609Y86117D01*
X154367Y86168D01*
X154124Y86213D01*
X153879Y86252D01*
X153634Y86285D01*
X153388Y86312D01*
X153142Y86333D01*
X152895Y86348D01*
X152647Y86357D01*
X152400Y86360D01*
D14*
X390330Y254395D02*
X391516Y254395D01*
X391516Y250444D01*
X389145Y250444D01*
X389067Y250446D01*
X388990Y250452D01*
X388913Y250461D01*
X388837Y250474D01*
X388761Y250491D01*
X388686Y250512D01*
X388613Y250536D01*
X388540Y250564D01*
X388469Y250596D01*
X388400Y250631D01*
X388333Y250669D01*
X388267Y250710D01*
X388204Y250755D01*
X388143Y250803D01*
X388084Y250853D01*
X388028Y250907D01*
X387974Y250963D01*
X387924Y251022D01*
X387876Y251083D01*
X387831Y251146D01*
X387790Y251212D01*
X387752Y251279D01*
X387717Y251348D01*
X387685Y251419D01*
X387657Y251492D01*
X387633Y251565D01*
X387612Y251640D01*
X387595Y251716D01*
X387582Y251792D01*
X387573Y251869D01*
X387567Y251946D01*
X387565Y252024D01*
X387565Y255976D01*
X387567Y256054D01*
X387573Y256131D01*
X387582Y256208D01*
X387595Y256284D01*
X387612Y256360D01*
X387633Y256435D01*
X387657Y256508D01*
X387685Y256581D01*
X387717Y256652D01*
X387752Y256721D01*
X387790Y256788D01*
X387831Y256854D01*
X387876Y256917D01*
X387924Y256978D01*
X387974Y257037D01*
X388028Y257093D01*
X388084Y257147D01*
X388143Y257197D01*
X388204Y257245D01*
X388267Y257290D01*
X388333Y257331D01*
X388400Y257369D01*
X388469Y257404D01*
X388540Y257436D01*
X388613Y257464D01*
X388686Y257488D01*
X388761Y257509D01*
X388837Y257526D01*
X388913Y257539D01*
X388990Y257548D01*
X389067Y257554D01*
X389145Y257556D01*
X391516Y257556D01*
X394880Y257556D02*
X394880Y250444D01*
X398831Y250444D02*
X394880Y257556D01*
X398831Y257556D02*
X398831Y250444D01*
X402195Y250444D02*
X402195Y257556D01*
X404170Y257556D01*
X404256Y257554D01*
X404342Y257548D01*
X404428Y257539D01*
X404513Y257526D01*
X404598Y257509D01*
X404681Y257489D01*
X404764Y257465D01*
X404846Y257437D01*
X404926Y257406D01*
X405005Y257371D01*
X405082Y257333D01*
X405158Y257291D01*
X405232Y257247D01*
X405303Y257199D01*
X405373Y257148D01*
X405440Y257094D01*
X405505Y257037D01*
X405567Y256977D01*
X405627Y256915D01*
X405684Y256850D01*
X405738Y256783D01*
X405789Y256713D01*
X405837Y256642D01*
X405881Y256568D01*
X405923Y256492D01*
X405961Y256415D01*
X405996Y256336D01*
X406027Y256256D01*
X406055Y256174D01*
X406079Y256091D01*
X406099Y256008D01*
X406116Y255923D01*
X406129Y255838D01*
X406138Y255752D01*
X406144Y255666D01*
X406146Y255580D01*
X406146Y252420D01*
X406144Y252334D01*
X406138Y252248D01*
X406129Y252162D01*
X406116Y252077D01*
X406099Y251992D01*
X406079Y251909D01*
X406055Y251826D01*
X406027Y251744D01*
X405996Y251664D01*
X405961Y251585D01*
X405923Y251508D01*
X405881Y251432D01*
X405837Y251358D01*
X405789Y251287D01*
X405738Y251217D01*
X405684Y251150D01*
X405627Y251085D01*
X405567Y251023D01*
X405505Y250963D01*
X405440Y250906D01*
X405373Y250852D01*
X405303Y250801D01*
X405232Y250753D01*
X405158Y250709D01*
X405082Y250667D01*
X405005Y250629D01*
X404926Y250594D01*
X404846Y250563D01*
X404764Y250535D01*
X404681Y250511D01*
X404598Y250491D01*
X404513Y250474D01*
X404428Y250461D01*
X404342Y250452D01*
X404256Y250446D01*
X404170Y250444D01*
X402195Y250444D01*
X390035Y232156D02*
X392406Y225044D01*
X394777Y232156D01*
X398851Y225044D02*
X400431Y225044D01*
X398851Y225044D02*
X398773Y225046D01*
X398696Y225052D01*
X398619Y225061D01*
X398543Y225074D01*
X398467Y225091D01*
X398392Y225112D01*
X398319Y225136D01*
X398246Y225164D01*
X398175Y225196D01*
X398106Y225231D01*
X398039Y225269D01*
X397973Y225310D01*
X397910Y225355D01*
X397849Y225403D01*
X397790Y225453D01*
X397734Y225507D01*
X397680Y225563D01*
X397630Y225622D01*
X397582Y225683D01*
X397537Y225746D01*
X397496Y225812D01*
X397458Y225879D01*
X397423Y225948D01*
X397391Y226019D01*
X397363Y226092D01*
X397339Y226165D01*
X397318Y226240D01*
X397301Y226316D01*
X397288Y226392D01*
X397279Y226469D01*
X397273Y226546D01*
X397271Y226624D01*
X397270Y226624D02*
X397270Y230576D01*
X397271Y230576D02*
X397273Y230654D01*
X397279Y230731D01*
X397288Y230808D01*
X397301Y230884D01*
X397318Y230960D01*
X397339Y231035D01*
X397363Y231108D01*
X397391Y231181D01*
X397423Y231252D01*
X397458Y231321D01*
X397496Y231388D01*
X397537Y231454D01*
X397582Y231517D01*
X397630Y231578D01*
X397680Y231637D01*
X397734Y231693D01*
X397790Y231747D01*
X397849Y231797D01*
X397910Y231845D01*
X397973Y231890D01*
X398039Y231931D01*
X398106Y231969D01*
X398175Y232004D01*
X398246Y232036D01*
X398319Y232064D01*
X398392Y232088D01*
X398467Y232109D01*
X398543Y232126D01*
X398619Y232139D01*
X398696Y232148D01*
X398773Y232154D01*
X398851Y232156D01*
X400431Y232156D01*
X404566Y225044D02*
X406146Y225044D01*
X404566Y225044D02*
X404488Y225046D01*
X404411Y225052D01*
X404334Y225061D01*
X404258Y225074D01*
X404182Y225091D01*
X404107Y225112D01*
X404034Y225136D01*
X403961Y225164D01*
X403890Y225196D01*
X403821Y225231D01*
X403754Y225269D01*
X403688Y225310D01*
X403625Y225355D01*
X403564Y225403D01*
X403505Y225453D01*
X403449Y225507D01*
X403395Y225563D01*
X403345Y225622D01*
X403297Y225683D01*
X403252Y225746D01*
X403211Y225812D01*
X403173Y225879D01*
X403138Y225948D01*
X403106Y226019D01*
X403078Y226092D01*
X403054Y226165D01*
X403033Y226240D01*
X403016Y226316D01*
X403003Y226392D01*
X402994Y226469D01*
X402988Y226546D01*
X402986Y226624D01*
X402985Y226624D02*
X402985Y230576D01*
X402986Y230576D02*
X402988Y230654D01*
X402994Y230731D01*
X403003Y230808D01*
X403016Y230884D01*
X403033Y230960D01*
X403054Y231035D01*
X403078Y231108D01*
X403106Y231181D01*
X403138Y231252D01*
X403173Y231321D01*
X403211Y231388D01*
X403252Y231454D01*
X403297Y231517D01*
X403345Y231578D01*
X403395Y231637D01*
X403449Y231693D01*
X403505Y231747D01*
X403564Y231797D01*
X403625Y231845D01*
X403688Y231890D01*
X403754Y231931D01*
X403821Y231969D01*
X403890Y232004D01*
X403961Y232036D01*
X404034Y232064D01*
X404107Y232088D01*
X404182Y232109D01*
X404258Y232126D01*
X404334Y232139D01*
X404411Y232148D01*
X404488Y232154D01*
X404566Y232156D01*
X406146Y232156D01*
X394350Y201224D02*
X394348Y201146D01*
X394342Y201069D01*
X394333Y200992D01*
X394320Y200916D01*
X394303Y200840D01*
X394282Y200765D01*
X394258Y200692D01*
X394230Y200619D01*
X394198Y200548D01*
X394163Y200479D01*
X394125Y200412D01*
X394084Y200346D01*
X394039Y200283D01*
X393991Y200222D01*
X393941Y200163D01*
X393887Y200107D01*
X393831Y200053D01*
X393772Y200003D01*
X393711Y199955D01*
X393648Y199910D01*
X393582Y199869D01*
X393515Y199831D01*
X393446Y199796D01*
X393375Y199764D01*
X393302Y199736D01*
X393229Y199712D01*
X393154Y199691D01*
X393078Y199674D01*
X393002Y199661D01*
X392925Y199652D01*
X392848Y199646D01*
X392770Y199644D01*
X392655Y199646D01*
X392541Y199652D01*
X392427Y199662D01*
X392313Y199675D01*
X392200Y199693D01*
X392087Y199715D01*
X391975Y199740D01*
X391865Y199769D01*
X391755Y199802D01*
X391646Y199839D01*
X391539Y199879D01*
X391433Y199923D01*
X391329Y199971D01*
X391226Y200022D01*
X391126Y200077D01*
X391027Y200135D01*
X390930Y200197D01*
X390836Y200261D01*
X390743Y200329D01*
X390653Y200401D01*
X390566Y200475D01*
X390481Y200552D01*
X390399Y200632D01*
X390598Y205176D02*
X390600Y205254D01*
X390606Y205331D01*
X390615Y205408D01*
X390628Y205484D01*
X390645Y205560D01*
X390666Y205635D01*
X390690Y205708D01*
X390718Y205781D01*
X390750Y205852D01*
X390785Y205921D01*
X390823Y205988D01*
X390864Y206054D01*
X390909Y206117D01*
X390957Y206178D01*
X391007Y206237D01*
X391061Y206293D01*
X391117Y206347D01*
X391176Y206397D01*
X391237Y206445D01*
X391300Y206490D01*
X391366Y206531D01*
X391433Y206569D01*
X391502Y206604D01*
X391573Y206636D01*
X391646Y206664D01*
X391719Y206688D01*
X391794Y206709D01*
X391870Y206726D01*
X391946Y206739D01*
X392023Y206748D01*
X392101Y206754D01*
X392178Y206756D01*
X392284Y206754D01*
X392390Y206748D01*
X392495Y206739D01*
X392600Y206726D01*
X392705Y206709D01*
X392809Y206688D01*
X392912Y206664D01*
X393014Y206636D01*
X393115Y206604D01*
X393215Y206569D01*
X393313Y206530D01*
X393411Y206487D01*
X393506Y206442D01*
X393600Y206393D01*
X393692Y206340D01*
X393782Y206284D01*
X393870Y206225D01*
X393956Y206163D01*
X391387Y203793D02*
X391320Y203835D01*
X391255Y203880D01*
X391192Y203929D01*
X391131Y203980D01*
X391074Y204035D01*
X391019Y204092D01*
X390966Y204152D01*
X390917Y204214D01*
X390871Y204279D01*
X390829Y204345D01*
X390789Y204414D01*
X390753Y204485D01*
X390721Y204558D01*
X390692Y204632D01*
X390667Y204707D01*
X390646Y204783D01*
X390628Y204861D01*
X390615Y204939D01*
X390605Y205018D01*
X390599Y205097D01*
X390597Y205176D01*
X393561Y202607D02*
X393628Y202565D01*
X393693Y202520D01*
X393756Y202471D01*
X393817Y202420D01*
X393874Y202365D01*
X393929Y202308D01*
X393982Y202248D01*
X394031Y202186D01*
X394077Y202121D01*
X394119Y202055D01*
X394159Y201986D01*
X394195Y201915D01*
X394227Y201842D01*
X394256Y201768D01*
X394281Y201693D01*
X394302Y201617D01*
X394320Y201539D01*
X394333Y201461D01*
X394343Y201382D01*
X394349Y201303D01*
X394351Y201224D01*
X393561Y202607D02*
X391388Y203793D01*
X398591Y199644D02*
X400172Y199644D01*
X398591Y199644D02*
X398513Y199646D01*
X398436Y199652D01*
X398359Y199661D01*
X398283Y199674D01*
X398207Y199691D01*
X398132Y199712D01*
X398059Y199736D01*
X397986Y199764D01*
X397915Y199796D01*
X397846Y199831D01*
X397779Y199869D01*
X397713Y199910D01*
X397650Y199955D01*
X397589Y200003D01*
X397530Y200053D01*
X397474Y200107D01*
X397420Y200163D01*
X397370Y200222D01*
X397322Y200283D01*
X397277Y200346D01*
X397236Y200412D01*
X397198Y200479D01*
X397163Y200548D01*
X397131Y200619D01*
X397103Y200692D01*
X397079Y200765D01*
X397058Y200840D01*
X397041Y200916D01*
X397028Y200992D01*
X397019Y201069D01*
X397013Y201146D01*
X397011Y201224D01*
X397011Y205176D01*
X397013Y205254D01*
X397019Y205331D01*
X397028Y205408D01*
X397041Y205484D01*
X397058Y205560D01*
X397079Y205635D01*
X397103Y205708D01*
X397131Y205781D01*
X397163Y205852D01*
X397198Y205921D01*
X397236Y205988D01*
X397277Y206054D01*
X397322Y206117D01*
X397370Y206178D01*
X397420Y206237D01*
X397474Y206293D01*
X397530Y206347D01*
X397589Y206397D01*
X397650Y206445D01*
X397713Y206490D01*
X397779Y206531D01*
X397846Y206569D01*
X397915Y206604D01*
X397986Y206636D01*
X398059Y206664D01*
X398132Y206688D01*
X398207Y206709D01*
X398283Y206726D01*
X398359Y206739D01*
X398436Y206748D01*
X398513Y206754D01*
X398591Y206756D01*
X400172Y206756D01*
X402985Y206756D02*
X402985Y199644D01*
X406146Y199644D01*
X391806Y175824D02*
X391804Y175746D01*
X391798Y175669D01*
X391789Y175592D01*
X391776Y175516D01*
X391759Y175440D01*
X391738Y175365D01*
X391714Y175292D01*
X391686Y175219D01*
X391654Y175148D01*
X391619Y175079D01*
X391581Y175012D01*
X391540Y174946D01*
X391495Y174883D01*
X391447Y174822D01*
X391397Y174763D01*
X391343Y174707D01*
X391287Y174653D01*
X391228Y174603D01*
X391167Y174555D01*
X391104Y174510D01*
X391038Y174469D01*
X390971Y174431D01*
X390902Y174396D01*
X390831Y174364D01*
X390758Y174336D01*
X390685Y174312D01*
X390610Y174291D01*
X390534Y174274D01*
X390458Y174261D01*
X390381Y174252D01*
X390304Y174246D01*
X390226Y174244D01*
X390111Y174246D01*
X389997Y174252D01*
X389883Y174262D01*
X389769Y174275D01*
X389656Y174293D01*
X389543Y174315D01*
X389431Y174340D01*
X389321Y174369D01*
X389211Y174402D01*
X389102Y174439D01*
X388995Y174479D01*
X388889Y174523D01*
X388785Y174571D01*
X388682Y174622D01*
X388582Y174677D01*
X388483Y174735D01*
X388386Y174797D01*
X388292Y174861D01*
X388199Y174929D01*
X388109Y175001D01*
X388022Y175075D01*
X387937Y175152D01*
X387855Y175232D01*
X388053Y179776D02*
X388055Y179854D01*
X388061Y179931D01*
X388070Y180008D01*
X388083Y180084D01*
X388100Y180160D01*
X388121Y180235D01*
X388145Y180308D01*
X388173Y180381D01*
X388205Y180452D01*
X388240Y180521D01*
X388278Y180588D01*
X388319Y180654D01*
X388364Y180717D01*
X388412Y180778D01*
X388462Y180837D01*
X388516Y180893D01*
X388572Y180947D01*
X388631Y180997D01*
X388692Y181045D01*
X388755Y181090D01*
X388821Y181131D01*
X388888Y181169D01*
X388957Y181204D01*
X389028Y181236D01*
X389101Y181264D01*
X389174Y181288D01*
X389249Y181309D01*
X389325Y181326D01*
X389401Y181339D01*
X389478Y181348D01*
X389556Y181354D01*
X389633Y181356D01*
X389739Y181354D01*
X389845Y181348D01*
X389950Y181339D01*
X390055Y181326D01*
X390160Y181309D01*
X390264Y181288D01*
X390367Y181264D01*
X390469Y181236D01*
X390570Y181204D01*
X390670Y181169D01*
X390768Y181130D01*
X390866Y181087D01*
X390961Y181042D01*
X391055Y180993D01*
X391147Y180940D01*
X391237Y180884D01*
X391325Y180825D01*
X391411Y180763D01*
X388843Y178393D02*
X388776Y178435D01*
X388711Y178480D01*
X388648Y178529D01*
X388587Y178580D01*
X388530Y178635D01*
X388475Y178692D01*
X388422Y178752D01*
X388373Y178814D01*
X388327Y178879D01*
X388285Y178945D01*
X388245Y179014D01*
X388209Y179085D01*
X388177Y179158D01*
X388148Y179232D01*
X388123Y179307D01*
X388102Y179383D01*
X388084Y179461D01*
X388071Y179539D01*
X388061Y179618D01*
X388055Y179697D01*
X388053Y179776D01*
X391016Y177207D02*
X391083Y177165D01*
X391148Y177120D01*
X391211Y177071D01*
X391272Y177020D01*
X391329Y176965D01*
X391384Y176908D01*
X391437Y176848D01*
X391486Y176786D01*
X391532Y176721D01*
X391574Y176655D01*
X391614Y176586D01*
X391650Y176515D01*
X391682Y176442D01*
X391711Y176368D01*
X391736Y176293D01*
X391757Y176217D01*
X391775Y176139D01*
X391788Y176061D01*
X391798Y175982D01*
X391804Y175903D01*
X391806Y175824D01*
X391016Y177207D02*
X388843Y178393D01*
X394713Y181356D02*
X394713Y174244D01*
X394713Y181356D02*
X396689Y181356D01*
X396775Y181354D01*
X396861Y181348D01*
X396947Y181339D01*
X397032Y181326D01*
X397117Y181309D01*
X397200Y181289D01*
X397283Y181265D01*
X397365Y181237D01*
X397445Y181206D01*
X397524Y181171D01*
X397601Y181133D01*
X397677Y181091D01*
X397751Y181047D01*
X397822Y180999D01*
X397892Y180948D01*
X397959Y180894D01*
X398024Y180837D01*
X398086Y180777D01*
X398146Y180715D01*
X398203Y180650D01*
X398257Y180583D01*
X398308Y180513D01*
X398356Y180442D01*
X398400Y180368D01*
X398442Y180292D01*
X398480Y180215D01*
X398515Y180136D01*
X398546Y180056D01*
X398574Y179974D01*
X398598Y179891D01*
X398618Y179808D01*
X398635Y179723D01*
X398648Y179638D01*
X398657Y179552D01*
X398663Y179466D01*
X398665Y179380D01*
X398664Y179380D02*
X398664Y176220D01*
X398665Y176220D02*
X398663Y176134D01*
X398657Y176048D01*
X398648Y175962D01*
X398635Y175877D01*
X398618Y175792D01*
X398598Y175709D01*
X398574Y175626D01*
X398546Y175544D01*
X398515Y175464D01*
X398480Y175385D01*
X398442Y175308D01*
X398400Y175232D01*
X398356Y175158D01*
X398308Y175087D01*
X398257Y175017D01*
X398203Y174950D01*
X398146Y174885D01*
X398086Y174823D01*
X398024Y174763D01*
X397959Y174706D01*
X397892Y174652D01*
X397822Y174601D01*
X397751Y174553D01*
X397677Y174509D01*
X397601Y174467D01*
X397524Y174429D01*
X397445Y174394D01*
X397365Y174363D01*
X397283Y174335D01*
X397200Y174311D01*
X397117Y174291D01*
X397032Y174274D01*
X396947Y174261D01*
X396861Y174252D01*
X396775Y174246D01*
X396689Y174244D01*
X394713Y174244D01*
X401405Y174244D02*
X403775Y181356D01*
X406146Y174244D01*
X405553Y176022D02*
X401997Y176022D01*
D11*
X416160Y53100D02*
X416160Y48100D01*
X411160Y48100D01*
X411160Y28100D01*
X416160Y28100D01*
X416160Y23100D01*
X356160Y23100D02*
X356160Y28100D01*
X361160Y28100D01*
X361160Y48100D01*
X356160Y48100D01*
X356160Y53100D01*
D15*
X386160Y38100D03*
D11*
X416160Y33100D02*
X416160Y28100D01*
X416160Y23100D02*
X356160Y23100D01*
X356160Y28100D02*
X356160Y33100D01*
X356160Y43100D02*
X356160Y48100D01*
X356160Y53100D02*
X416160Y53100D01*
X416160Y48100D02*
X416160Y43100D01*
X356000Y99300D02*
X356000Y104300D01*
X361000Y104300D01*
X361000Y124300D01*
X356000Y124300D01*
X356000Y129300D01*
X416000Y129300D02*
X416000Y124300D01*
X411000Y124300D01*
X411000Y104300D01*
X416000Y104300D01*
X416000Y99300D01*
D15*
X386000Y114300D03*
D11*
X356000Y119300D02*
X356000Y124300D01*
X356000Y129300D02*
X416000Y129300D01*
X416000Y124300D02*
X416000Y119300D01*
X416000Y109300D02*
X416000Y104300D01*
X416000Y99300D02*
X356000Y99300D01*
X356000Y104300D02*
X356000Y109300D01*
D12*
X80010Y126130D02*
X80010Y26310D01*
X-9910Y126130D02*
X-11940Y126130D01*
X-11940Y26310D01*
X56130Y26310D02*
X80010Y26310D01*
X56130Y26310D02*
X56130Y42310D01*
X56130Y60090D02*
X56130Y92350D01*
X56130Y110130D02*
X56130Y126130D01*
X56130Y26310D02*
X-9910Y26310D01*
X56130Y126130D02*
X80010Y126130D01*
X-9910Y126130D02*
X-9910Y26310D01*
X-11940Y26310D01*
X-9910Y126130D02*
X56130Y126130D01*
X-1778Y51200D02*
X-1776Y51342D01*
X-1770Y51485D01*
X-1760Y51627D01*
X-1746Y51769D01*
X-1728Y51910D01*
X-1706Y52051D01*
X-1680Y52191D01*
X-1651Y52330D01*
X-1617Y52469D01*
X-1579Y52606D01*
X-1538Y52743D01*
X-1493Y52878D01*
X-1444Y53012D01*
X-1391Y53144D01*
X-1335Y53275D01*
X-1275Y53404D01*
X-1211Y53532D01*
X-1144Y53657D01*
X-1073Y53781D01*
X-999Y53903D01*
X-922Y54022D01*
X-841Y54140D01*
X-757Y54255D01*
X-670Y54367D01*
X-579Y54477D01*
X-486Y54585D01*
X-389Y54690D01*
X-290Y54792D01*
X-188Y54891D01*
X-83Y54988D01*
X25Y55081D01*
X135Y55172D01*
X247Y55259D01*
X362Y55343D01*
X480Y55424D01*
X599Y55501D01*
X721Y55575D01*
X845Y55646D01*
X970Y55713D01*
X1098Y55777D01*
X1227Y55837D01*
X1358Y55893D01*
X1490Y55946D01*
X1624Y55995D01*
X1759Y56040D01*
X1896Y56081D01*
X2033Y56119D01*
X2172Y56153D01*
X2311Y56182D01*
X2451Y56208D01*
X2592Y56230D01*
X2733Y56248D01*
X2875Y56262D01*
X3017Y56272D01*
X3160Y56278D01*
X3302Y56280D01*
X3444Y56278D01*
X3587Y56272D01*
X3729Y56262D01*
X3871Y56248D01*
X4012Y56230D01*
X4153Y56208D01*
X4293Y56182D01*
X4432Y56153D01*
X4571Y56119D01*
X4708Y56081D01*
X4845Y56040D01*
X4980Y55995D01*
X5114Y55946D01*
X5246Y55893D01*
X5377Y55837D01*
X5506Y55777D01*
X5634Y55713D01*
X5759Y55646D01*
X5883Y55575D01*
X6005Y55501D01*
X6124Y55424D01*
X6242Y55343D01*
X6357Y55259D01*
X6469Y55172D01*
X6579Y55081D01*
X6687Y54988D01*
X6792Y54891D01*
X6894Y54792D01*
X6993Y54690D01*
X7090Y54585D01*
X7183Y54477D01*
X7274Y54367D01*
X7361Y54255D01*
X7445Y54140D01*
X7526Y54022D01*
X7603Y53903D01*
X7677Y53781D01*
X7748Y53657D01*
X7815Y53532D01*
X7879Y53404D01*
X7939Y53275D01*
X7995Y53144D01*
X8048Y53012D01*
X8097Y52878D01*
X8142Y52743D01*
X8183Y52606D01*
X8221Y52469D01*
X8255Y52330D01*
X8284Y52191D01*
X8310Y52051D01*
X8332Y51910D01*
X8350Y51769D01*
X8364Y51627D01*
X8374Y51485D01*
X8380Y51342D01*
X8382Y51200D01*
X8380Y51058D01*
X8374Y50915D01*
X8364Y50773D01*
X8350Y50631D01*
X8332Y50490D01*
X8310Y50349D01*
X8284Y50209D01*
X8255Y50070D01*
X8221Y49931D01*
X8183Y49794D01*
X8142Y49657D01*
X8097Y49522D01*
X8048Y49388D01*
X7995Y49256D01*
X7939Y49125D01*
X7879Y48996D01*
X7815Y48868D01*
X7748Y48743D01*
X7677Y48619D01*
X7603Y48497D01*
X7526Y48378D01*
X7445Y48260D01*
X7361Y48145D01*
X7274Y48033D01*
X7183Y47923D01*
X7090Y47815D01*
X6993Y47710D01*
X6894Y47608D01*
X6792Y47509D01*
X6687Y47412D01*
X6579Y47319D01*
X6469Y47228D01*
X6357Y47141D01*
X6242Y47057D01*
X6124Y46976D01*
X6005Y46899D01*
X5883Y46825D01*
X5759Y46754D01*
X5634Y46687D01*
X5506Y46623D01*
X5377Y46563D01*
X5246Y46507D01*
X5114Y46454D01*
X4980Y46405D01*
X4845Y46360D01*
X4708Y46319D01*
X4571Y46281D01*
X4432Y46247D01*
X4293Y46218D01*
X4153Y46192D01*
X4012Y46170D01*
X3871Y46152D01*
X3729Y46138D01*
X3587Y46128D01*
X3444Y46122D01*
X3302Y46120D01*
X3160Y46122D01*
X3017Y46128D01*
X2875Y46138D01*
X2733Y46152D01*
X2592Y46170D01*
X2451Y46192D01*
X2311Y46218D01*
X2172Y46247D01*
X2033Y46281D01*
X1896Y46319D01*
X1759Y46360D01*
X1624Y46405D01*
X1490Y46454D01*
X1358Y46507D01*
X1227Y46563D01*
X1098Y46623D01*
X970Y46687D01*
X845Y46754D01*
X721Y46825D01*
X599Y46899D01*
X480Y46976D01*
X362Y47057D01*
X247Y47141D01*
X135Y47228D01*
X25Y47319D01*
X-83Y47412D01*
X-188Y47509D01*
X-290Y47608D01*
X-389Y47710D01*
X-486Y47815D01*
X-579Y47923D01*
X-670Y48033D01*
X-757Y48145D01*
X-841Y48260D01*
X-922Y48378D01*
X-999Y48497D01*
X-1073Y48619D01*
X-1144Y48743D01*
X-1211Y48868D01*
X-1275Y48996D01*
X-1335Y49125D01*
X-1391Y49256D01*
X-1444Y49388D01*
X-1493Y49522D01*
X-1538Y49657D01*
X-1579Y49794D01*
X-1617Y49931D01*
X-1651Y50070D01*
X-1680Y50209D01*
X-1706Y50349D01*
X-1728Y50490D01*
X-1746Y50631D01*
X-1760Y50773D01*
X-1770Y50915D01*
X-1776Y51058D01*
X-1778Y51200D01*
X-1778Y101238D02*
X-1776Y101380D01*
X-1770Y101523D01*
X-1760Y101665D01*
X-1746Y101807D01*
X-1728Y101948D01*
X-1706Y102089D01*
X-1680Y102229D01*
X-1651Y102368D01*
X-1617Y102507D01*
X-1579Y102644D01*
X-1538Y102781D01*
X-1493Y102916D01*
X-1444Y103050D01*
X-1391Y103182D01*
X-1335Y103313D01*
X-1275Y103442D01*
X-1211Y103570D01*
X-1144Y103695D01*
X-1073Y103819D01*
X-999Y103941D01*
X-922Y104060D01*
X-841Y104178D01*
X-757Y104293D01*
X-670Y104405D01*
X-579Y104515D01*
X-486Y104623D01*
X-389Y104728D01*
X-290Y104830D01*
X-188Y104929D01*
X-83Y105026D01*
X25Y105119D01*
X135Y105210D01*
X247Y105297D01*
X362Y105381D01*
X480Y105462D01*
X599Y105539D01*
X721Y105613D01*
X845Y105684D01*
X970Y105751D01*
X1098Y105815D01*
X1227Y105875D01*
X1358Y105931D01*
X1490Y105984D01*
X1624Y106033D01*
X1759Y106078D01*
X1896Y106119D01*
X2033Y106157D01*
X2172Y106191D01*
X2311Y106220D01*
X2451Y106246D01*
X2592Y106268D01*
X2733Y106286D01*
X2875Y106300D01*
X3017Y106310D01*
X3160Y106316D01*
X3302Y106318D01*
X3444Y106316D01*
X3587Y106310D01*
X3729Y106300D01*
X3871Y106286D01*
X4012Y106268D01*
X4153Y106246D01*
X4293Y106220D01*
X4432Y106191D01*
X4571Y106157D01*
X4708Y106119D01*
X4845Y106078D01*
X4980Y106033D01*
X5114Y105984D01*
X5246Y105931D01*
X5377Y105875D01*
X5506Y105815D01*
X5634Y105751D01*
X5759Y105684D01*
X5883Y105613D01*
X6005Y105539D01*
X6124Y105462D01*
X6242Y105381D01*
X6357Y105297D01*
X6469Y105210D01*
X6579Y105119D01*
X6687Y105026D01*
X6792Y104929D01*
X6894Y104830D01*
X6993Y104728D01*
X7090Y104623D01*
X7183Y104515D01*
X7274Y104405D01*
X7361Y104293D01*
X7445Y104178D01*
X7526Y104060D01*
X7603Y103941D01*
X7677Y103819D01*
X7748Y103695D01*
X7815Y103570D01*
X7879Y103442D01*
X7939Y103313D01*
X7995Y103182D01*
X8048Y103050D01*
X8097Y102916D01*
X8142Y102781D01*
X8183Y102644D01*
X8221Y102507D01*
X8255Y102368D01*
X8284Y102229D01*
X8310Y102089D01*
X8332Y101948D01*
X8350Y101807D01*
X8364Y101665D01*
X8374Y101523D01*
X8380Y101380D01*
X8382Y101238D01*
X8380Y101096D01*
X8374Y100953D01*
X8364Y100811D01*
X8350Y100669D01*
X8332Y100528D01*
X8310Y100387D01*
X8284Y100247D01*
X8255Y100108D01*
X8221Y99969D01*
X8183Y99832D01*
X8142Y99695D01*
X8097Y99560D01*
X8048Y99426D01*
X7995Y99294D01*
X7939Y99163D01*
X7879Y99034D01*
X7815Y98906D01*
X7748Y98781D01*
X7677Y98657D01*
X7603Y98535D01*
X7526Y98416D01*
X7445Y98298D01*
X7361Y98183D01*
X7274Y98071D01*
X7183Y97961D01*
X7090Y97853D01*
X6993Y97748D01*
X6894Y97646D01*
X6792Y97547D01*
X6687Y97450D01*
X6579Y97357D01*
X6469Y97266D01*
X6357Y97179D01*
X6242Y97095D01*
X6124Y97014D01*
X6005Y96937D01*
X5883Y96863D01*
X5759Y96792D01*
X5634Y96725D01*
X5506Y96661D01*
X5377Y96601D01*
X5246Y96545D01*
X5114Y96492D01*
X4980Y96443D01*
X4845Y96398D01*
X4708Y96357D01*
X4571Y96319D01*
X4432Y96285D01*
X4293Y96256D01*
X4153Y96230D01*
X4012Y96208D01*
X3871Y96190D01*
X3729Y96176D01*
X3587Y96166D01*
X3444Y96160D01*
X3302Y96158D01*
X3160Y96160D01*
X3017Y96166D01*
X2875Y96176D01*
X2733Y96190D01*
X2592Y96208D01*
X2451Y96230D01*
X2311Y96256D01*
X2172Y96285D01*
X2033Y96319D01*
X1896Y96357D01*
X1759Y96398D01*
X1624Y96443D01*
X1490Y96492D01*
X1358Y96545D01*
X1227Y96601D01*
X1098Y96661D01*
X970Y96725D01*
X845Y96792D01*
X721Y96863D01*
X599Y96937D01*
X480Y97014D01*
X362Y97095D01*
X247Y97179D01*
X135Y97266D01*
X25Y97357D01*
X-83Y97450D01*
X-188Y97547D01*
X-290Y97646D01*
X-389Y97748D01*
X-486Y97853D01*
X-579Y97961D01*
X-670Y98071D01*
X-757Y98183D01*
X-841Y98298D01*
X-922Y98416D01*
X-999Y98535D01*
X-1073Y98657D01*
X-1144Y98781D01*
X-1211Y98906D01*
X-1275Y99034D01*
X-1335Y99163D01*
X-1391Y99294D01*
X-1444Y99426D01*
X-1493Y99560D01*
X-1538Y99695D01*
X-1579Y99832D01*
X-1617Y99969D01*
X-1651Y100108D01*
X-1680Y100247D01*
X-1706Y100387D01*
X-1728Y100528D01*
X-1746Y100669D01*
X-1760Y100811D01*
X-1770Y100953D01*
X-1776Y101096D01*
X-1778Y101238D01*
D11*
X6985Y34690D02*
X9525Y31515D01*
X6985Y34690D02*
X18415Y34690D01*
X18415Y31515D02*
X18415Y37865D01*
X6985Y84538D02*
X6987Y84642D01*
X6993Y84747D01*
X7002Y84851D01*
X7015Y84954D01*
X7033Y85057D01*
X7053Y85159D01*
X7078Y85261D01*
X7106Y85361D01*
X7138Y85461D01*
X7174Y85559D01*
X7213Y85656D01*
X7255Y85751D01*
X7301Y85845D01*
X7351Y85937D01*
X7403Y86027D01*
X7459Y86115D01*
X7519Y86201D01*
X7581Y86285D01*
X7646Y86366D01*
X7714Y86445D01*
X7786Y86522D01*
X7859Y86595D01*
X7936Y86667D01*
X8015Y86735D01*
X8096Y86800D01*
X8180Y86862D01*
X8266Y86922D01*
X8354Y86978D01*
X8444Y87030D01*
X8536Y87080D01*
X8630Y87126D01*
X8725Y87168D01*
X8822Y87207D01*
X8920Y87243D01*
X9020Y87275D01*
X9120Y87303D01*
X9222Y87328D01*
X9324Y87348D01*
X9427Y87366D01*
X9530Y87379D01*
X9634Y87388D01*
X9739Y87394D01*
X9843Y87396D01*
X6985Y84538D02*
X6987Y84420D01*
X6993Y84301D01*
X7002Y84183D01*
X7015Y84066D01*
X7033Y83949D01*
X7053Y83832D01*
X7078Y83716D01*
X7106Y83601D01*
X7139Y83488D01*
X7174Y83375D01*
X7214Y83263D01*
X7256Y83153D01*
X7303Y83044D01*
X7353Y82936D01*
X7406Y82831D01*
X7463Y82727D01*
X7523Y82625D01*
X7586Y82525D01*
X7653Y82427D01*
X7722Y82331D01*
X7795Y82238D01*
X7871Y82147D01*
X7949Y82058D01*
X8031Y81972D01*
X8115Y81889D01*
X8201Y81808D01*
X8291Y81731D01*
X8382Y81656D01*
X8476Y81584D01*
X8573Y81515D01*
X8671Y81450D01*
X8772Y81387D01*
X8875Y81328D01*
X8979Y81272D01*
X9085Y81220D01*
X9193Y81171D01*
X9302Y81126D01*
X9413Y81084D01*
X9525Y81046D01*
X12065Y86443D02*
X11990Y86519D01*
X11911Y86594D01*
X11830Y86665D01*
X11746Y86734D01*
X11660Y86799D01*
X11572Y86861D01*
X11482Y86921D01*
X11390Y86977D01*
X11295Y87030D01*
X11199Y87079D01*
X11101Y87125D01*
X11002Y87168D01*
X10901Y87207D01*
X10799Y87242D01*
X10696Y87274D01*
X10592Y87302D01*
X10487Y87327D01*
X10380Y87348D01*
X10274Y87365D01*
X10167Y87378D01*
X10059Y87387D01*
X9951Y87393D01*
X9843Y87395D01*
X12065Y86443D02*
X18415Y81045D01*
X18415Y87395D01*
D12*
X162560Y256540D02*
X168910Y262890D01*
X181610Y262890D01*
X187960Y256540D01*
X187960Y243840D01*
X181610Y237490D01*
X168910Y237490D01*
X162560Y243840D01*
X130810Y262890D02*
X118110Y262890D01*
X130810Y262890D02*
X137160Y256540D01*
X137160Y243840D01*
X130810Y237490D01*
X137160Y256540D02*
X143510Y262890D01*
X156210Y262890D01*
X162560Y256540D01*
X162560Y243840D01*
X156210Y237490D01*
X143510Y237490D01*
X137160Y243840D01*
X111760Y243840D02*
X111760Y256540D01*
X118110Y262890D01*
X111760Y243840D02*
X118110Y237490D01*
X130810Y237490D01*
X194310Y262890D02*
X207010Y262890D01*
X213360Y256540D01*
X213360Y243840D01*
X207010Y237490D01*
X187960Y256540D02*
X194310Y262890D01*
X187960Y243840D02*
X194310Y237490D01*
X207010Y237490D01*
D16*
X59070Y206310D03*
D11*
X52070Y234310D02*
X29070Y234310D01*
X52070Y234310D02*
X52070Y154310D01*
X29070Y154310D01*
X13070Y154810D02*
X570Y154810D01*
X570Y214310D01*
X570Y234310D01*
X13070Y234310D01*
X11570Y174810D02*
X1070Y174810D01*
X11570Y174810D02*
X11570Y214310D01*
X570Y214310D01*
M02*
