G04 EAGLE Gerber RS-274X export*
G75*
%MOMM*%
%FSLAX34Y34*%
%LPD*%
%INSoldermask Top*%
%IPPOS*%
%AMOC8*
5,1,8,0,0,1.08239X$1,22.5*%
G01*
%ADD10C,1.473200*%
%ADD11R,1.503200X1.703200*%
%ADD12R,1.511200X1.511200*%
%ADD13C,1.511200*%
%ADD14R,1.703200X2.203200*%
%ADD15R,4.003200X2.203200*%
%ADD16C,1.727200*%
%ADD17C,1.524000*%
%ADD18R,1.711200X1.711200*%
%ADD19C,1.711200*%
%ADD20R,1.203200X1.603200*%
%ADD21R,1.703200X1.503200*%
%ADD22C,1.993900*%
%ADD23R,1.803200X0.603200*%
%ADD24R,1.703200X1.603200*%
%ADD25R,1.403200X1.603200*%
%ADD26C,0.703200*%
%ADD27C,0.959600*%


D10*
X63500Y254000D03*
X101600Y25400D03*
X393700Y76200D03*
X368300Y254000D03*
D11*
X250800Y215900D03*
X231800Y215900D03*
X250800Y190500D03*
X231800Y190500D03*
X358800Y215900D03*
X377800Y215900D03*
X358800Y190500D03*
X377800Y190500D03*
D12*
X297675Y37950D03*
X297675Y114150D03*
D13*
X297675Y63350D03*
X297675Y88750D03*
X323075Y88750D03*
X323075Y63350D03*
X323075Y37950D03*
X323075Y114150D03*
D14*
X327800Y219460D03*
X304800Y219460D03*
X281800Y219460D03*
D15*
X304800Y156460D03*
D16*
X276860Y242570D02*
X276860Y257810D01*
X302260Y257810D02*
X302260Y242570D01*
X327660Y242570D02*
X327660Y257810D01*
D17*
X165100Y38100D02*
X165100Y24892D01*
X190500Y24892D02*
X190500Y38100D01*
X190500Y114300D02*
X190500Y127508D01*
X165100Y127508D02*
X165100Y114300D01*
D18*
X419100Y254000D03*
D19*
X419100Y228600D03*
X419100Y203200D03*
X419100Y177800D03*
D20*
X266700Y61800D03*
X276200Y39800D03*
X257200Y39800D03*
D21*
X228600Y60300D03*
X228600Y41300D03*
X134620Y47600D03*
X134620Y28600D03*
X228600Y92100D03*
X228600Y111100D03*
X254000Y111100D03*
X254000Y92100D03*
D19*
X421160Y38100D03*
X351160Y38100D03*
X351000Y114300D03*
X421000Y114300D03*
D22*
X47054Y51200D02*
X29147Y51200D01*
X29147Y101200D02*
X47054Y101200D01*
D16*
X124460Y242570D02*
X124460Y257810D01*
X149860Y257810D02*
X149860Y242570D01*
X175260Y242570D02*
X175260Y257810D01*
X200660Y257810D02*
X200660Y242570D01*
D23*
X52070Y181310D03*
X52070Y187810D03*
X52070Y194310D03*
X52070Y200810D03*
X52070Y207310D03*
D24*
X20970Y234810D03*
X20970Y153810D03*
D25*
X46070Y226810D03*
X46070Y161810D03*
D26*
X44070Y174310D03*
X44070Y214310D03*
D27*
X88900Y215900D03*
X101600Y215900D03*
X88900Y190500D03*
X101600Y190500D03*
X194028Y228600D03*
M02*
